<svg width="250" height="100" viewBox="0 0 250 100" fill="none" xmlns="http://www.w3.org/2000/svg">
<g clip-path="url(#clip0_2054_11198)">
<path fill-rule="evenodd" clip-rule="evenodd" d="M55.2818 97.213C54.7773 97.0443 54.272 96.8755 53.7655 96.7914V96.5387C53.0074 96.4539 52.2493 96.37 51.5752 96.2851C50.9851 95.6957 50.227 96.0322 49.5527 95.9486V95.6957C48.7089 95.527 47.9508 95.4428 47.1929 95.3582V95.1056C45.1704 94.7691 43.7382 94.7691 42.1363 94.8527V95.1056C41.2941 95.1056 41.2102 95.3582 40.9568 95.6111C38.1761 95.6111 35.1421 94.7691 33.1195 95.1056V95.3582H28.9067V95.1056H26.3789V95.3582H23.4287V95.1056C22.1643 95.1056 20.4801 95.6111 19.8061 95.6111C19.131 95.4431 18.5417 95.2746 17.9523 95.1056V95.3582H17.3614V95.6957C15.3396 95.6957 12.9788 95.4428 11.4635 95.6957V95.9486C10.451 96.0325 9.44101 96.1171 8.42923 96.2012V95.9486H7.83909C7.7542 95.7798 7.67033 95.6111 7.58646 95.4428C7.16482 95.4428 7.16482 95.1902 6.99606 94.8527H6.40694C6.32205 94.685 6.23895 94.5162 6.15406 94.3472C5.81655 94.2623 5.56469 94.2623 5.31027 94.2623V94.0094C3.962 93.2515 2.36264 93.5891 1.68863 93.6729V94.0094C1.51987 93.9256 1.35009 93.8409 1.26622 93.8409V92.746C2.61449 91.903 3.962 91.06 5.31027 90.3021C5.64856 89.6279 5.73268 89.4591 6.3218 89.2062V88.8697C6.48979 88.7848 6.7442 88.701 6.99606 88.6161V88.3634H7.24894C7.41847 87.8579 7.67033 87.4366 7.92321 87.0152C8.0081 86.9311 8.09273 86.9311 8.26047 86.9311C8.26047 86.4255 9.44101 85.5828 9.94651 85.5828C9.94651 84.4033 13.9916 83.6444 15.4237 83.6444C15.7612 83.4766 16.098 83.3917 16.4355 83.3079C16.4355 79.9371 15.8451 77.1556 15.1708 74.7125C15.087 74.2062 15.087 73.7007 15.087 73.1952C13.7377 70.8354 13.4851 64.7685 12.6431 63.9255C12.0537 61.1441 11.4635 58.3634 10.957 55.6669C10.957 54.4874 10.7893 52.9703 10.5364 52.7174C10.3669 49.094 10.0309 45.8071 9.60874 43.279C9.44101 40.4986 9.35612 37.7169 9.27225 35.0204C9.77699 31.2292 9.94651 26.5937 10.1142 23.2232C9.77699 23.1391 9.52513 23.1391 9.27225 23.1391V23.4755H8.85087C7.52433 26.1276 3.78634 28.6477 3.03613 31.6496H2.78325V31.9032H1.94049V31.6496C1.51987 31.3131 1.18159 31.0602 0.845606 30.8076V30.47H0.507323V30.2172H0.255464C0.171341 29.628 0.0856838 29.0377 0.000793457 28.5321C1.02408 25.4666 4.56876 22.2804 6.7442 20.1047C6.7442 19.8519 6.7442 19.6831 6.82833 19.5154C3.23711 19.1088 1.83131 22.4262 0.00104915 21.2004C0.171597 20.0209 0.339332 18.9252 0.507323 17.8296H0.845606C0.845606 17.6611 0.929729 17.4931 1.01334 17.3241C4.42966 15.0461 7.16993 14.2202 11.4635 14.4588C10.6791 9.94935 5.05765 9.36893 1.94049 9.99231C1.18159 8.47604 1.68863 6.0311 1.8556 5.52585C5.94976 4.61635 9.00403 7.37605 12.1859 8.0117C12.1859 7.67521 12.2741 6.81122 12.2741 6.5586C10.644 6.15102 5.72373 2.85308 8.67162 1.37952C10.9764 -3.23192 14.5562 5.08171 15.087 6.36887C15.087 7.12675 15.7446 9.52362 16.2506 10.8721C17.0088 10.6193 17.446 7.54941 17.6979 6.79026C18.1193 6.53763 18.5417 6.28475 19.0479 6.03136V5.61074C19.4675 5.18936 19.8899 4.76772 20.3113 4.34633H20.7319V4.09371C21.8283 3.33558 23.767 1.06041 25.7047 1.64953C25.7885 2.07117 25.9565 2.49256 26.126 2.99781H26.3789V4.68385H26.126V4.93648C25.7885 5.0206 25.5359 5.10523 25.2823 5.18936V5.52585C23.934 5.52585 24.3561 5.44173 24.1027 6.03136H23.598V6.36887C22.0802 6.36887 21.9122 6.79026 21.9122 8.30729C24.3561 7.63302 27.6431 7.21164 30.761 7.12675C32.2773 7.29551 33.7933 7.46426 35.3952 7.63302C35.5629 7.71714 35.7309 7.80076 35.9007 7.88565C35.7312 9.06516 35.5632 10.2447 35.3952 11.5093C34.3834 12.0148 32.3611 11.5093 31.6869 11.4252V11.0877C31.5189 11.0038 31.434 10.9189 31.3501 10.9189C29.1614 10.9189 20.0932 13.0691 21.5028 14.4777C24.7046 14.8152 30.8449 13.7004 34.5514 14.7963V15.0481C34.9728 15.2166 35.8158 15.133 35.8158 16.7339C35.6471 16.7339 35.4801 16.8181 35.3952 16.9027V17.3241C35.0569 17.4082 34.8058 17.577 34.5514 17.7457V18.1671C33.8771 18.1671 33.7933 19.094 33.119 19.2627V19.5156C32.6145 19.4307 32.1083 19.3469 31.6869 19.2627V19.0091H31.1806V18.6726C30.8449 18.6726 27.9044 17.7945 27.6505 17.7945C27.8203 18.6376 30.6751 20.3574 30.8446 21.2004H30.591V21.6218C30.4225 21.6218 30.3383 21.6218 30.2545 21.7059C30.1706 21.7908 30.1706 21.8746 30.1706 22.0434H29.7482C29.6641 22.296 29.0739 23.3068 28.5687 23.6443C28.4846 23.7284 28.4846 23.8972 28.4846 24.0657H27.1363C27.0522 23.8131 26.9686 23.6443 26.9686 23.4755C26.6303 23.4755 24.7317 21.5013 24.4801 21.5013C23.6021 23.1337 27.5748 25.9284 28.5689 27.8579C28.1483 27.8579 28.3171 27.8579 28.3171 28.2785H28.0642C27.7267 28.4473 27.4741 28.7001 27.2204 28.9538V29.2064C26.3784 29.7119 25.5354 30.2172 24.7765 30.7227C21.0191 25.013 12.2567 18.5703 12.978 27.0154C12.8941 27.6896 12.8941 28.3636 12.8941 29.1218H12.6423C12.3038 31.1443 12.5582 33.1669 12.5582 35.6946C11.8839 36.3689 12.9778 51.3692 13.0629 55.0767C14.0744 58.9538 15.3388 62.8301 16.0128 67.2966C16.939 70.4986 17.9513 74.2911 18.5409 78.4198C18.7927 79.5993 19.0472 80.7788 19.3829 82.0432C20.141 82.6334 21.3213 81.5377 21.4895 81.1163C21.575 81.0325 21.744 81.0324 21.912 81.0324V80.6949C24.1861 78.757 25.4508 78.4198 28.6526 79.7683C29.3268 80.1897 29.1588 80.2738 30.3386 80.5262C30.1709 78.8412 30.0867 77.1556 30.0011 75.4704H29.7485C29.5805 74.6276 29.4127 73.7853 29.2422 73.0264C29.0744 69.3191 28.9065 65.6105 28.8226 61.9871C28.8226 55.1598 34.1431 33.443 43.8229 30.2174C43.8229 29.7119 43.9067 29.6283 44.1586 29.3747C44.1586 27.5209 43.6541 27.7735 42.7264 27.7735C40.864 28.55 30.422 33.8411 30.0013 33.8411V33.5882H29.7487C29.5807 31.5657 29.3271 30.2174 29.7487 28.7853C31.5877 27.4631 46.1464 24.3467 46.4348 23.7287H46.7713V23.2232C41.6464 22.8568 37.7964 24.5374 32.6987 25.7512C31.2655 25.7512 31.1809 24.6553 30.929 24.3188C31.0131 23.8974 31.0967 23.5607 31.1809 23.2232C32.5291 22.5489 33.9631 21.8749 35.3955 21.2853C39.5786 19.9973 43.3202 19.9265 47.6992 19.6834V19.0091C45.9917 18.5212 39.5349 15.635 38.5136 15.9758C38.4287 15.8909 38.3441 15.8073 38.26 15.7221C38.26 15.3018 38.3441 14.9643 38.4287 14.6275H38.7663C38.8501 14.29 38.934 13.9533 39.0181 13.6157H39.2718C40.4521 10.7502 40.8727 11.5932 44.4971 12.2675C46.209 13.0282 48.3382 14.7822 49.3832 16.4813H49.7215C52.1373 20.9125 57.0813 9.40549 63.2047 9.99231C63.5404 10.4983 63.9628 11.088 64.3842 11.6781V12.8576C64.2147 13.0264 64.1306 13.2792 64.047 13.5319C61.9735 13.9466 54.3559 18.356 54.3559 19.8521C54.7277 19.8521 60.0152 18.0681 60.3386 17.7457C61.1827 17.4928 62.1093 17.2394 63.0354 17.0714C64.8892 16.9866 66.8276 16.9866 68.7655 16.9866C68.8504 18.3346 68.934 19.7677 69.1038 21.2001H68.7655V21.5366H68.5137V22.0429H67.8394V21.79C65.0526 20.4522 58.8584 22.2554 55.7037 23.3063V23.7279C56.1261 23.8967 56.5464 24.0652 57.0517 24.2334C59.9183 24.4871 64.2988 24.6548 67.8394 26.4245C68.0913 26.4245 68.3449 26.5094 68.6814 26.5932C69.0189 26.8461 70.2823 27.6891 70.7039 28.9533C70.7039 30.3015 70.7039 31.6491 70.7878 32.9973H70.4521V33.3346H69.6091V32.9973H69.3554V32.7444H69.1036V32.4918H68.7653V32.1551C63.9805 29.4202 60.5468 27.8298 55.0299 27.436C54.6075 27.5201 54.1869 27.6037 53.7655 27.6889V27.9415H53.3449V28.5316C53.5978 28.6158 53.8496 28.6996 54.1869 28.7845V29.121H54.8622V29.3739C57.0665 29.6186 63.2939 34.2737 64.047 35.8626H64.2988V36.1155H64.5532C64.6374 36.453 64.8051 36.7898 64.9731 37.127H65.3114C65.3114 37.6325 65.9856 38.3065 66.3211 39.1496C66.1534 39.3183 66.0692 39.4861 65.9854 39.7389C65.8166 39.8238 65.6471 39.9077 65.4791 39.9916C65.3952 40.0765 65.3952 40.1603 65.3952 40.3291H64.553V40.582C63.9628 40.7507 63.3727 40.9192 62.8662 41.1721V41.4247C62.4448 41.5935 62.1091 41.7615 61.7705 41.9305C60.7605 41.9305 60.6756 41.3411 60.6756 40.9195C60.3381 40.9195 59.9178 40.1606 59.6639 40.0767H59.2425C59.2425 37.1447 53.6753 34.1492 53.3446 32.4921H53.091C52.5009 31.2284 51.6589 31.6491 51.406 31.6491C51.406 36.4809 54.4761 40.6438 53.765 45.9753C52.1649 45.9753 51.7425 46.3118 50.9846 45.9753C49.8887 45.9753 48.7933 45.9753 47.6984 46.0594V45.3852H48.0341V44.9646H48.2878C48.2878 43.8689 48.9621 42.8571 49.0467 42.3519C48.7084 40.0767 48.2037 37.464 47.6984 35.8629H47.4448C47.3599 35.4415 47.276 35.0199 47.1921 34.6834H46.8546C46.8546 33.3351 46.3501 31.9868 46.3501 31.903H46.0116V31.6493C39.4326 32.9651 34.0428 46.8585 32.3606 52.6333C32.2765 53.0547 32.2765 53.56 32.2765 54.0655H32.0236C31.8541 56.6781 31.1798 59.8802 31.1798 63.3351C31.5181 66.7059 31.4335 70.0767 32.4442 73.4476C32.6979 75.8074 32.9505 78.1666 33.2883 80.6106C33.624 81.9588 34.7204 82.2956 36.743 83.0545V83.3074C39.0174 84.234 41.8837 86.4255 44.7482 88.0264C45.2542 88.0264 46.1804 88.4481 47.4448 89.206V89.4588C47.6135 89.4588 47.7823 89.543 48.0341 89.6276V89.8802C48.2037 89.9651 48.7084 90.2167 48.8779 90.6384C49.5522 90.6384 49.6361 91.1439 50.563 91.4814V91.734C50.7309 91.8189 50.9005 91.9028 51.0692 91.9869C51.0692 92.4929 51.4906 92.4929 51.8263 92.6611C51.8263 92.8297 51.8263 92.9984 51.9112 93.1667H52.2487V93.4203H52.5006V93.6729C52.8389 93.9258 53.1749 94.1784 53.5131 94.4311C53.8489 94.4311 56.4618 95.5267 56.4618 96.9591C56.0412 97.044 55.6195 97.1276 55.2813 97.2128L55.2818 97.213Z" fill="#D7B56D"/>
<path fill-rule="evenodd" clip-rule="evenodd" d="M61.3292 61.744C61.3292 67.1583 56.9404 71.5478 51.5271 71.5478C46.1128 71.5478 41.7233 67.158 41.7233 61.744C41.7233 56.3296 46.1131 51.9409 51.5271 51.9409C56.9404 51.9409 61.3292 56.3296 61.3292 61.744Z" fill="#D7B56D"/>
<path d="M195.312 66.923L197.018 70.3792L200.833 70.9328L198.072 73.6258L198.724 77.4223L195.312 75.6297L191.898 77.4223L192.552 73.6258L189.789 70.9328L193.606 70.3792L195.312 66.923Z" fill="#B38C0A"/>
<path d="M211.224 66.923L212.933 70.3792L216.747 70.9328L213.985 73.6258L214.639 77.4223L211.224 75.6297L207.812 77.4223L208.465 73.6258L205.701 70.9328L209.519 70.3792L211.224 66.923Z" fill="#B38C0A"/>
<path d="M227.138 66.923L228.843 70.3792L232.661 70.9328L229.898 73.6258L230.55 77.4223L227.138 75.6297L223.725 77.4223L224.377 73.6258L221.618 70.9328L225.431 70.3792L227.138 66.923Z" fill="#B38C0A"/>
<path d="M243.076 66.923L244.781 70.3792L248.599 70.9328L245.836 73.6258L246.488 77.4223L243.076 75.6297L239.663 77.4223L240.315 73.6258L237.556 70.9328L241.369 70.3792L243.076 66.923Z" fill="#B38C0A"/>
<path d="M88.562 47.6092C88.5119 47.9935 88.4339 48.3778 88.3393 48.7565C88.2447 49.1298 88.1054 49.4584 87.9271 49.7315C87.7436 49.9989 87.4984 50.1771 87.1918 50.2495C86.9468 50.2999 86.7517 50.3275 86.6014 50.3387C86.4567 50.35 86.3173 50.35 86.1892 50.35C86.0222 50.35 85.8882 50.3666 85.7993 50.4057C85.7047 50.439 85.6545 50.5003 85.6545 50.584C85.6599 50.7287 85.7157 50.8289 85.8328 50.8793C85.944 50.9294 86.0833 50.957 86.2562 50.9516C86.529 50.9516 86.8187 50.9463 87.136 50.935C87.448 50.9238 87.7655 50.9128 88.0719 50.9015C88.3838 50.8903 88.6679 50.8793 88.9297 50.868C89.1916 50.8568 89.403 50.8514 89.5649 50.8514C89.771 50.8514 90.0609 50.8624 90.4281 50.8793C90.8014 50.8959 91.2136 50.9072 91.6761 50.9238C92.1331 50.9404 92.601 50.9516 93.0743 50.9516C93.3248 50.957 93.5253 50.9294 93.6647 50.8793C93.804 50.8289 93.8764 50.7289 93.8764 50.584C93.871 50.5003 93.8206 50.439 93.726 50.4057C93.6314 50.3666 93.5143 50.35 93.375 50.35C93.208 50.35 93.0073 50.3387 92.7733 50.3165C92.5394 50.2943 92.2719 50.2495 91.9712 50.183C91.6815 50.1217 91.4419 50.0046 91.2581 49.8376C91.0686 49.6706 90.974 49.4254 90.9684 49.1135C90.9684 48.8514 90.9799 48.6008 90.9965 48.3558C91.0134 48.1109 91.0354 47.8378 91.0689 47.5425L92.8068 34.2405H92.9403C93.1799 34.7473 93.4361 35.3045 93.7204 35.9061C94.0045 36.5078 94.2939 37.1204 94.5836 37.733C94.8731 38.3457 95.1461 38.9251 95.4026 39.4654C95.6532 40.0115 95.8705 40.4736 96.0541 40.8581C96.2323 41.2481 96.3551 41.5155 96.4162 41.6602C96.4885 41.8218 96.611 42.0837 96.7839 42.4401C96.9621 42.7966 97.1682 43.2202 97.4131 43.6991C97.6583 44.1837 97.9145 44.6905 98.1876 45.231C98.4602 45.7657 98.7335 46.2891 98.9951 46.8074C99.2626 47.3198 99.5019 47.7933 99.7249 48.2167C99.9476 48.6399 100.126 48.9854 100.26 49.2472C100.522 49.754 100.75 50.1608 100.934 50.4561C101.118 50.7568 101.285 50.913 101.43 50.9184C101.524 50.924 101.619 50.8795 101.714 50.7849C101.808 50.6844 101.925 50.5009 102.07 50.2278C102.215 49.9606 102.416 49.565 102.666 49.047L109.952 33.8734H110.086L112.091 48.5791C112.158 49.047 112.169 49.3924 112.136 49.6264C112.097 49.855 112.03 49.9884 111.924 50.0166C111.807 50.0667 111.718 50.1168 111.651 50.1779C111.59 50.2337 111.557 50.3006 111.557 50.3843C111.551 50.4845 111.618 50.5625 111.752 50.6182C111.891 50.6737 112.153 50.7184 112.526 50.7517C112.754 50.7683 113.055 50.7852 113.434 50.8018C113.813 50.8187 114.23 50.8353 114.693 50.8463C115.155 50.8629 115.628 50.8744 116.107 50.8908C116.587 50.902 117.043 50.913 117.478 50.9243C117.912 50.9297 118.291 50.9409 118.614 50.9465C118.932 50.9465 119.166 50.9519 119.31 50.9519C119.55 50.9519 119.756 50.924 119.923 50.8683C120.085 50.8125 120.174 50.7179 120.18 50.5842C120.18 50.4896 120.124 50.4226 120.023 50.3947C119.929 50.3612 119.801 50.3503 119.645 50.3503C119.428 50.3556 119.149 50.339 118.809 50.2945C118.469 50.2556 118.057 50.161 117.572 50.0161C117.244 49.9215 116.976 49.7374 116.77 49.4758C116.564 49.2137 116.397 48.8463 116.269 48.384C116.146 47.9217 116.03 47.3423 115.935 46.6401L112.893 25.9852C112.843 25.6344 112.771 25.3726 112.671 25.2053C112.57 25.0325 112.442 24.9491 112.292 24.9491C112.147 24.9491 112.019 25.0161 111.913 25.1496C111.807 25.2831 111.685 25.484 111.557 25.7512L102.466 44.8354L93.3415 25.9852C93.1967 25.7011 93.0743 25.4784 92.9738 25.3278C92.8733 25.1775 92.7787 25.0772 92.6953 25.0215C92.6115 24.9714 92.5281 24.9438 92.4391 24.9491C92.3054 24.9491 92.1883 25.0215 92.0937 25.1718C91.9934 25.3168 91.9208 25.5339 91.871 25.818L88.5623 47.6092H88.562Z" fill="white"/>
<path d="M134.183 43.7989C134.25 43.7989 134.311 43.8101 134.361 43.8377C134.412 43.8659 134.451 43.9157 134.484 43.9993L136.757 49.7146C136.818 49.8874 136.812 50.0263 136.751 50.1437C136.684 50.2605 136.595 50.3272 136.489 50.3497C136.345 50.3664 136.244 50.3999 136.194 50.45C136.144 50.5003 136.116 50.5671 136.122 50.6507C136.127 50.7453 136.205 50.8067 136.356 50.8287C136.512 50.8568 136.723 50.8734 136.991 50.8844C137.82 50.9066 138.601 50.9235 139.325 50.9289C140.049 50.9401 140.695 50.9458 141.263 50.9458C141.831 50.9511 142.288 50.9511 142.639 50.9511C143.001 50.9511 143.274 50.9399 143.458 50.9233C143.642 50.9064 143.764 50.8788 143.826 50.834C143.887 50.7895 143.915 50.7282 143.909 50.6504C143.909 50.4497 143.776 50.3495 143.508 50.3495C143.341 50.3495 143.174 50.3439 142.996 50.3272C142.817 50.3106 142.622 50.2827 142.405 50.2493C142.272 50.2214 142.121 50.1656 141.948 50.0767C141.776 49.9874 141.587 49.8427 141.38 49.631C141.168 49.4246 140.94 49.1242 140.695 48.734C140.45 48.3387 140.183 47.8263 139.898 47.1914C139.626 46.5673 139.308 45.8209 138.929 44.9521C138.556 44.0829 138.155 43.1361 137.72 42.1167C137.286 41.1028 136.84 40.0611 136.389 38.9972C135.932 37.933 135.493 36.8972 135.064 35.889C134.635 34.8808 134.239 33.9506 133.877 33.0981C133.515 32.2459 133.203 31.5271 132.953 30.9311C132.696 30.3409 132.518 29.9288 132.412 29.6946C132.318 29.4831 132.228 29.3102 132.15 29.1765C132.072 29.043 131.989 28.9482 131.894 28.8871C131.805 28.8201 131.688 28.7925 131.543 28.7925C131.398 28.7868 131.253 28.8761 131.12 29.0597C130.986 29.2381 130.835 29.5276 130.674 29.929L122.987 47.8097C122.792 48.2886 122.591 48.7064 122.385 49.0518C122.179 49.4029 121.928 49.687 121.639 49.8987C121.349 50.1104 120.987 50.2495 120.547 50.3162C120.413 50.3162 120.268 50.3216 120.112 50.3331C119.962 50.3441 119.817 50.3497 119.678 50.3497C119.561 50.3497 119.477 50.3832 119.422 50.4387C119.372 50.4945 119.344 50.5668 119.344 50.6507C119.344 50.7675 119.388 50.8455 119.472 50.89C119.561 50.9345 119.695 50.9511 119.879 50.9511C120.397 50.9511 120.898 50.9399 121.377 50.9233C121.862 50.9064 122.269 50.8951 122.614 50.8788C122.954 50.8619 123.182 50.8509 123.288 50.8509C123.605 50.8509 123.956 50.8619 124.341 50.8788C124.719 50.8954 125.104 50.9066 125.494 50.9233C125.878 50.9399 126.235 50.9511 126.564 50.9511C126.714 50.9511 126.831 50.9345 126.909 50.89C126.993 50.8455 127.031 50.7673 127.031 50.6507C127.037 50.5668 127.009 50.4945 126.953 50.4387C126.892 50.3832 126.775 50.3497 126.597 50.3497H126.163C125.717 50.3497 125.411 50.2774 125.238 50.138C125.065 49.9987 124.987 49.7982 124.993 49.5476C124.993 49.3748 125.026 49.1298 125.098 48.8179C125.165 48.5059 125.277 48.1661 125.427 47.8097L126.998 43.9996C127.026 43.916 127.059 43.8661 127.093 43.838C127.126 43.8101 127.187 43.7991 127.265 43.7991H134.184L134.183 43.7989ZM127.867 42.2279C127.816 42.2279 127.778 42.2113 127.755 42.1778C127.733 42.1443 127.733 42.0942 127.766 42.0274L130.607 34.8417C130.624 34.7862 130.641 34.7304 130.668 34.6688C130.691 34.6133 130.724 34.5798 130.774 34.5742C130.808 34.5798 130.835 34.6133 130.852 34.6688C130.874 34.7302 130.891 34.7862 130.908 34.8417L133.682 42.0609C133.699 42.1113 133.699 42.1502 133.676 42.1837C133.66 42.2115 133.615 42.2281 133.548 42.2281H127.867V42.2279ZM147.285 45.8375C147.29 47.2247 147.279 48.4614 147.257 49.5364C147.229 50.6113 147.151 51.5638 147.023 52.394C146.894 53.2237 146.672 53.9647 146.371 54.6165C146.065 55.268 145.636 55.8587 145.079 56.3989C144.795 56.6833 144.544 56.9116 144.316 57.0898C144.087 57.268 143.875 57.4015 143.675 57.502C143.43 57.6191 143.263 57.7137 143.168 57.7917C143.079 57.8694 143.035 57.9364 143.04 58.0034C143.04 58.0702 143.062 58.1313 143.107 58.187C143.151 58.2374 143.207 58.265 143.274 58.2709C143.346 58.2709 143.435 58.2594 143.553 58.2428C143.664 58.2205 143.77 58.187 143.876 58.1369C144.193 57.9865 144.472 57.8528 144.711 57.7303C144.951 57.6132 145.162 57.5017 145.346 57.4015C146.293 56.839 147.123 56.2542 147.836 55.6416C148.549 55.0289 149.14 54.4104 149.608 53.7924C150.076 53.1739 150.415 52.5725 150.627 51.9875C150.917 51.1741 151.112 50.3387 151.201 49.4809C151.295 48.6177 151.334 47.7818 151.329 46.9743C151.323 46.2558 151.306 45.554 151.279 44.8799C151.251 44.2059 151.234 43.5652 151.228 42.9638V37.6832C151.228 36.8253 151.228 36.0956 151.228 35.4883C151.228 34.8813 151.228 34.3745 151.234 33.9621C151.234 33.5499 151.239 33.2047 151.245 32.9316C151.245 32.6588 151.257 32.419 151.262 32.2241C151.273 32.029 151.284 31.8398 151.295 31.6672C151.318 31.1712 151.413 30.8094 151.568 30.5698C151.73 30.3358 152.003 30.1911 152.398 30.1295C152.56 30.0963 152.704 30.0684 152.827 30.0518C152.955 30.0349 153.089 30.0295 153.234 30.0295C153.417 30.0295 153.551 30.0016 153.64 29.9518C153.724 29.9014 153.769 29.8291 153.769 29.7291C153.769 29.6286 153.718 29.5619 153.618 29.5174C153.518 29.4782 153.368 29.4616 153.167 29.4616C152.872 29.4616 152.543 29.467 152.187 29.4726C151.83 29.4782 151.474 29.4841 151.123 29.4949C150.766 29.5061 150.438 29.5117 150.142 29.5174C149.841 29.5227 149.602 29.5284 149.424 29.5284C149.229 29.5284 148.961 29.523 148.622 29.5174C148.282 29.5117 147.909 29.5059 147.491 29.4949C147.073 29.4839 146.65 29.4782 146.215 29.4726C145.781 29.4672 145.369 29.4616 144.979 29.4616C144.761 29.4616 144.595 29.4782 144.483 29.5174C144.366 29.5619 144.31 29.6286 144.31 29.7291C144.31 29.8293 144.36 29.9017 144.449 29.9518C144.539 30.0019 144.661 30.0295 144.812 30.0295C145.034 30.0295 145.257 30.0349 145.474 30.0518C145.686 30.0684 145.859 30.0963 145.981 30.1295C146.293 30.2134 146.533 30.3133 146.711 30.4304C146.889 30.5476 147.017 30.7033 147.101 30.8984C147.184 31.0878 147.234 31.3497 147.251 31.6672C147.257 31.8398 147.262 32.029 147.268 32.2241C147.273 32.419 147.273 32.6586 147.279 32.9316C147.279 33.2045 147.285 33.5499 147.285 33.9621C147.285 34.3745 147.285 34.8813 147.285 35.4883C147.285 36.0956 147.285 36.8253 147.285 37.6832V45.838V45.8375ZM159.918 42.6958C159.918 43.5705 159.918 44.3893 159.913 45.1523C159.907 45.9211 159.896 46.6118 159.879 47.219C159.862 47.8317 159.829 48.3387 159.784 48.7453C159.74 49.1628 159.662 49.5026 159.54 49.7591C159.417 50.0153 159.211 50.1825 158.916 50.249C158.782 50.2825 158.631 50.3104 158.459 50.327C158.291 50.3436 158.097 50.3492 157.879 50.3492C157.701 50.3546 157.573 50.3881 157.506 50.4495C157.439 50.5106 157.406 50.5776 157.412 50.6502C157.412 50.7504 157.462 50.8228 157.556 50.8729C157.657 50.923 157.796 50.9506 157.98 50.9506C158.286 50.9506 158.609 50.9453 158.96 50.9284C159.311 50.9171 159.662 50.9005 160.019 50.8839C160.375 50.8839 160.698 50.8785 160.994 50.8673C161.283 50.856 161.517 50.8506 161.69 50.8506C162.124 50.8506 162.62 50.856 163.183 50.8729C163.745 50.8839 164.38 50.9008 165.099 50.9174C165.817 50.9509 166.62 50.9731 167.516 50.9897C168.413 51.0066 169.41 51.0179 170.513 51.0179C170.875 51.0232 171.16 51.0122 171.366 50.9897C171.572 50.9678 171.728 50.9061 171.834 50.8003C171.939 50.6944 172.023 50.5218 172.084 50.2822C172.129 50.1319 172.173 49.9204 172.218 49.6417C172.262 49.363 172.307 49.0626 172.346 48.7394C172.39 48.4108 172.418 48.1042 172.446 47.8204C172.474 47.5307 172.485 47.3078 172.485 47.1408C172.491 46.9792 172.474 46.8345 172.441 46.6951C172.407 46.556 172.329 46.4834 172.218 46.4724C172.124 46.4724 172.051 46.5059 172.001 46.5783C171.956 46.6453 171.917 46.7565 171.884 46.9068C171.789 47.486 171.644 47.9429 171.449 48.2715C171.254 48.6057 170.976 48.8506 170.614 49.0122C170.352 49.1237 170.057 49.2017 169.723 49.2574C169.394 49.3075 169.06 49.341 168.731 49.3579C168.397 49.3745 168.101 49.3802 167.84 49.3802C166.843 49.3855 166.063 49.3244 165.489 49.1963C164.915 49.0682 164.503 48.8284 164.252 48.4832C164.007 48.138 163.879 47.6476 163.862 47.0071C163.857 46.7897 163.851 46.5003 163.846 46.1323C163.846 45.7646 163.846 45.375 163.851 44.9515C163.851 44.5281 163.857 44.1272 163.857 43.7426C163.862 43.3639 163.862 43.0464 163.862 42.7955V40.5232C163.862 40.4393 163.873 40.367 163.896 40.3112C163.918 40.2557 163.963 40.2222 164.029 40.2222C164.185 40.2222 164.419 40.2222 164.742 40.2276C165.06 40.233 165.416 40.2389 165.817 40.2498C166.213 40.2555 166.608 40.2667 166.998 40.278C167.388 40.289 167.734 40.3002 168.029 40.3168C168.324 40.3281 168.53 40.3391 168.641 40.3557C169.009 40.3892 169.299 40.4562 169.521 40.562C169.739 40.6623 169.911 40.7904 170.028 40.9407C170.145 41.0967 170.229 41.2693 170.279 41.4588C170.312 41.6426 170.335 41.8265 170.34 41.999C170.351 42.1773 170.368 42.3442 170.379 42.4948C170.379 42.5618 170.396 42.6176 170.44 42.6618C170.479 42.7063 170.546 42.7288 170.646 42.7288C170.736 42.7234 170.803 42.6899 170.841 42.6176C170.886 42.5449 170.914 42.4613 170.931 42.3614C170.942 42.2668 170.947 42.1775 170.947 42.0939C170.947 42.0382 170.953 41.9379 170.958 41.7932C170.964 41.6429 170.975 41.47 170.992 41.2805C171.003 41.0855 171.014 40.8906 171.031 40.6955C171.048 40.506 171.064 40.3335 171.081 40.1887C171.137 39.7154 171.181 39.3363 171.215 39.0522C171.248 38.7627 171.276 38.5508 171.292 38.406C171.309 38.2669 171.315 38.1667 171.315 38.1166C171.315 38.033 171.292 37.9606 171.248 37.9049C171.203 37.8491 171.148 37.8156 171.081 37.8156C171.02 37.8156 170.953 37.8548 170.886 37.9215C170.819 37.9939 170.724 38.0777 170.613 38.1833C170.479 38.3281 170.301 38.4285 170.073 38.4899C169.85 38.5454 169.56 38.5901 169.209 38.618C169.07 38.629 168.825 38.64 168.48 38.6512C168.14 38.6569 167.744 38.6681 167.304 38.6681C166.859 38.6735 166.413 38.6794 165.973 38.6794C165.527 38.6847 165.132 38.6847 164.792 38.6847C164.447 38.6847 164.202 38.6847 164.062 38.6847C163.979 38.6847 163.929 38.6512 163.901 38.5958C163.873 38.54 163.862 38.4677 163.862 38.3838V31.3653C163.862 31.2814 163.878 31.2149 163.912 31.1702C163.946 31.12 163.996 31.0978 164.062 31.0978C164.19 31.0978 164.413 31.0978 164.725 31.1034C165.037 31.1088 165.399 31.1144 165.8 31.1257C166.207 31.131 166.608 31.1423 167.009 31.1533C167.41 31.1648 167.761 31.1755 168.062 31.1924C168.363 31.2037 168.569 31.2147 168.675 31.2313C169.159 31.2758 169.527 31.3486 169.778 31.4486C170.034 31.5432 170.218 31.666 170.335 31.8051C170.452 31.9444 170.541 32.1004 170.613 32.2676C170.669 32.3788 170.714 32.5069 170.741 32.6407C170.769 32.7744 170.786 32.9027 170.797 33.0193C170.808 33.1364 170.814 33.2311 170.814 33.3034C170.814 33.4208 170.825 33.5098 170.858 33.5765C170.886 33.6376 170.953 33.6711 171.048 33.6711C171.126 33.6657 171.187 33.6376 171.231 33.5765C171.276 33.5208 171.309 33.4538 171.332 33.3814C171.354 33.309 171.371 33.2479 171.382 33.2032C171.399 33.1139 171.415 32.9858 171.432 32.8133C171.449 32.6404 171.466 32.4512 171.477 32.2561C171.493 32.0556 171.504 31.8718 171.515 31.7048C171.532 31.5379 171.544 31.4095 171.549 31.3315C171.571 30.9027 171.605 30.5629 171.638 30.3177C171.677 30.0725 171.711 29.8886 171.738 29.7715C171.766 29.649 171.783 29.5544 171.783 29.4928C171.783 29.4205 171.772 29.3593 171.744 29.3092C171.716 29.2535 171.666 29.2256 171.582 29.2256C171.515 29.231 171.443 29.2476 171.36 29.2811C171.282 29.3149 171.198 29.3368 171.115 29.3591C170.992 29.3757 170.825 29.4036 170.608 29.443C170.391 29.4762 170.151 29.5038 169.878 29.5263C169.778 29.5319 169.533 29.5378 169.154 29.5378C168.77 29.5378 168.307 29.5432 167.756 29.5432C167.204 29.5432 166.619 29.5378 166.006 29.5378C165.388 29.5378 164.798 29.5378 164.224 29.5322C163.656 29.5322 163.16 29.5322 162.736 29.5266C162.313 29.5266 162.024 29.5266 161.857 29.5266C161.573 29.5266 161.194 29.5212 160.726 29.5099C160.258 29.4987 159.757 29.4877 159.211 29.4765C158.665 29.4652 158.136 29.4598 157.612 29.4598C157.395 29.4598 157.228 29.4764 157.116 29.5156C156.999 29.5601 156.943 29.6268 156.943 29.7273C156.943 29.8275 156.994 29.8999 157.083 29.95C157.172 30.0001 157.295 30.0277 157.445 30.0277C157.668 30.0277 157.891 30.0331 158.108 30.05C158.319 30.0666 158.492 30.0945 158.614 30.1277C158.926 30.2116 159.166 30.3115 159.344 30.4287C159.522 30.5458 159.651 30.7015 159.734 30.8966C159.818 31.086 159.868 31.3479 159.884 31.6654C159.89 31.838 159.896 32.0272 159.901 32.2223C159.907 32.4172 159.907 32.6568 159.912 32.9298C159.912 33.2083 159.918 33.5481 159.918 33.9603C159.918 34.3727 159.918 34.8795 159.918 35.4865C159.918 36.0938 159.918 36.8235 159.918 37.6814V42.6945L159.918 42.6958ZM182.512 51.3186C183.041 51.3242 183.592 51.2963 184.172 51.2408C184.751 51.1795 185.319 51.068 185.876 50.8954C186.433 50.7284 186.951 50.4778 187.425 50.149C188.138 49.6476 188.706 49.1242 189.14 48.5727C189.569 48.0211 189.887 47.4307 190.076 46.8125C190.271 46.194 190.371 45.5371 190.366 44.8349C190.377 43.9771 190.221 43.164 189.909 42.3839C189.597 41.5984 189.068 40.8466 188.327 40.1115C187.58 39.3815 186.567 38.663 185.285 37.9501L184.082 37.2815C183.425 36.9141 182.896 36.574 182.484 36.2567C182.072 35.9337 181.76 35.6274 181.537 35.3321C181.32 35.0368 181.169 34.7471 181.091 34.452C181.007 34.1567 180.968 33.8562 180.974 33.5387C180.979 33.0539 181.091 32.6194 181.303 32.2464C181.52 31.8674 181.815 31.5499 182.188 31.288C182.561 31.0321 182.99 30.8311 183.47 30.6976C183.949 30.5642 184.456 30.4972 184.985 30.4972C185.62 30.5025 186.149 30.5808 186.583 30.7255C187.018 30.8702 187.369 31.0431 187.642 31.2489C187.915 31.4553 188.121 31.6501 188.26 31.8342C188.472 32.0848 188.633 32.3354 188.745 32.5862C188.856 32.8365 188.928 33.0651 188.973 33.2656C189.012 33.466 189.034 33.611 189.029 33.7059C189.029 34.0401 189.129 34.207 189.33 34.207C189.447 34.207 189.536 34.1293 189.602 33.9787C189.664 33.8284 189.697 33.6054 189.697 33.3044C189.697 32.564 189.708 31.962 189.725 31.5051C189.742 31.0485 189.753 30.6918 189.77 30.4468C189.787 30.1962 189.798 30.0124 189.798 29.8955C189.798 29.795 189.764 29.7171 189.697 29.6616C189.631 29.6058 189.53 29.5611 189.397 29.5278C189.006 29.422 188.45 29.3164 187.736 29.2162C187.018 29.1215 186.177 29.0658 185.219 29.0599C184.194 29.0599 183.236 29.1995 182.339 29.4611C181.448 29.7286 180.662 30.1126 179.983 30.614C179.303 31.1154 178.768 31.7115 178.384 32.4136C178 33.1152 177.805 33.9007 177.799 34.7754C177.793 35.6052 177.933 36.385 178.223 37.1094C178.512 37.8335 178.997 38.5298 179.671 39.2038C180.345 39.8778 181.258 40.5518 182.411 41.2258L184.116 42.2284C184.762 42.6127 185.28 42.9804 185.67 43.3315C186.06 43.6825 186.355 44.0223 186.55 44.3453C186.745 44.6739 186.873 44.9914 186.934 45.309C187.001 45.6209 187.029 45.9329 187.024 46.2395C187.024 46.9135 186.857 47.5261 186.533 48.0664C186.205 48.6064 185.743 49.0414 185.135 49.3587C184.523 49.6762 183.798 49.8432 182.946 49.8486C182.484 49.8486 182.011 49.8041 181.531 49.7039C181.047 49.6093 180.59 49.4533 180.156 49.2359C179.721 49.0189 179.337 48.7292 179.008 48.3668C178.679 48.0104 178.429 47.5647 178.267 47.0413C178.184 46.7851 178.117 46.5233 178.072 46.2558C178.022 45.9884 178 45.76 178 45.5708C178.005 45.4647 177.989 45.3591 177.95 45.2643C177.911 45.164 177.827 45.1083 177.699 45.1029C177.582 45.1083 177.493 45.1753 177.426 45.309C177.365 45.4427 177.331 45.6153 177.331 45.8383C177.32 45.961 177.309 46.1502 177.293 46.4121C177.276 46.6683 177.254 46.9746 177.237 47.3257C177.215 47.6767 177.198 48.0498 177.187 48.4395C177.17 48.835 177.164 49.2249 177.164 49.6149C177.164 49.8212 177.176 49.9882 177.209 50.105C177.237 50.2221 177.293 50.3168 177.376 50.3837C177.46 50.4561 177.576 50.5231 177.733 50.5842C178.162 50.7737 178.635 50.9184 179.159 51.0299C179.682 51.1357 180.228 51.2081 180.797 51.2526C181.37 51.2971 181.939 51.3193 182.512 51.3193L182.512 51.3186ZM201.462 42.6958C201.462 43.5705 201.462 44.3893 201.456 45.1581C201.451 45.9214 201.44 46.6118 201.423 47.219C201.406 47.8317 201.373 48.3387 201.329 48.7453C201.284 49.1628 201.206 49.5026 201.083 49.7591C200.961 50.0153 200.755 50.1825 200.459 50.249C200.342 50.2825 200.192 50.3104 200.019 50.327C199.841 50.3436 199.64 50.3492 199.423 50.3492C199.245 50.3546 199.117 50.3881 199.05 50.4495C198.983 50.5106 198.95 50.5776 198.955 50.6502C198.955 50.7504 199.006 50.8228 199.1 50.8729C199.201 50.923 199.34 50.9506 199.524 50.9506C199.824 50.9506 200.153 50.9453 200.526 50.934C200.894 50.9228 201.262 50.9118 201.635 50.9005C202.008 50.8893 202.342 50.8783 202.648 50.867C202.955 50.8558 203.195 50.8504 203.367 50.8504C203.651 50.8504 204.041 50.8614 204.537 50.8783C205.033 50.8949 205.59 50.9061 206.208 50.9228C206.826 50.9394 207.461 50.9506 208.113 50.9506C208.286 50.9506 208.419 50.9228 208.525 50.8729C208.626 50.8225 208.681 50.7502 208.681 50.6502C208.681 50.5776 208.648 50.5106 208.575 50.4495C208.497 50.3884 208.38 50.3549 208.213 50.3492C208.068 50.3492 207.901 50.3436 207.718 50.338C207.539 50.3326 207.361 50.3211 207.183 50.3045C207.004 50.2879 206.848 50.271 206.709 50.2487C206.425 50.2043 206.203 50.1153 206.052 49.9869C205.896 49.8588 205.785 49.6916 205.718 49.4855C205.651 49.2853 205.6 49.0455 205.573 48.7782C205.528 48.3604 205.495 47.8478 205.473 47.2295C205.444 46.6169 205.428 45.926 205.417 45.1574C205.411 44.3885 205.406 43.5698 205.406 42.695V31.198L209.116 31.2648C209.99 31.2814 210.675 31.3706 211.177 31.5379C211.678 31.7048 212.034 31.9109 212.246 32.1561C212.463 32.4013 212.575 32.6519 212.591 32.9027L212.625 33.2034C212.641 33.4152 212.669 33.5655 212.719 33.6491C212.764 33.7327 212.848 33.7772 212.959 33.7716C213.043 33.7716 213.104 33.7327 213.143 33.6491C213.182 33.5711 213.21 33.454 213.226 33.3037C213.226 33.1142 213.232 32.8583 213.238 32.5407C213.243 32.2231 213.249 31.8889 213.26 31.5325C213.271 31.1758 213.276 30.8528 213.282 30.5519C213.287 30.2458 213.293 30.0172 213.293 29.8613C213.299 29.6439 213.282 29.4933 213.254 29.3987C213.221 29.3041 213.16 29.2596 213.059 29.2596C213.009 29.2596 212.926 29.2762 212.797 29.2985C212.669 29.3264 212.491 29.3596 212.257 29.3931C212.045 29.4266 211.773 29.4601 211.444 29.4823C211.115 29.5102 210.72 29.5268 210.252 29.5268H198.32C197.83 29.5268 197.323 29.5158 196.81 29.499C196.298 29.4767 195.819 29.4435 195.379 29.3931C195.017 29.3374 194.744 29.265 194.554 29.1867C194.365 29.109 194.22 29.0643 194.109 29.0586C194.025 29.0586 193.958 29.1031 193.903 29.1867C193.853 29.276 193.808 29.4097 193.775 29.5936C193.758 29.6437 193.73 29.783 193.686 29.9945C193.635 30.2118 193.585 30.468 193.524 30.7687C193.463 31.0697 193.401 31.3757 193.346 31.6877C193.284 31.9996 193.24 32.2781 193.201 32.5174C193.162 32.7626 193.14 32.9352 193.14 33.0357C193.14 33.1858 193.156 33.3029 193.201 33.3809C193.24 33.4589 193.307 33.5034 193.407 33.5034C193.507 33.5034 193.58 33.4699 193.624 33.409C193.674 33.342 193.713 33.2528 193.741 33.1359C193.775 33.0303 193.825 32.8966 193.903 32.7238C193.981 32.5568 194.092 32.3673 194.243 32.1669C194.382 31.9551 194.566 31.7879 194.794 31.6657C195.023 31.543 195.318 31.4537 195.686 31.398C196.053 31.3369 196.521 31.309 197.084 31.2978L201.462 31.1975V42.6945V42.6958ZM218.875 42.6958C218.875 43.6148 218.875 44.4673 218.869 45.2581C218.864 46.049 218.853 46.7511 218.836 47.3638C218.819 47.9823 218.786 48.4834 218.741 48.879C218.697 49.2912 218.619 49.6087 218.496 49.8261C218.374 50.0432 218.168 50.1879 217.872 50.2493C217.739 50.2827 217.588 50.3106 217.416 50.3272C217.248 50.3439 217.053 50.3495 216.836 50.3495C216.658 50.3549 216.53 50.3884 216.463 50.4497C216.396 50.5108 216.363 50.5778 216.368 50.6504C216.368 50.7507 216.418 50.823 216.513 50.8731C216.613 50.9233 216.753 50.9509 216.937 50.9509C217.237 50.9509 217.566 50.9455 217.939 50.9343C218.307 50.923 218.674 50.912 219.048 50.9008C219.416 50.8895 219.755 50.8785 220.061 50.8673C220.368 50.856 220.608 50.8506 220.78 50.8506C221.053 50.8506 221.443 50.8616 221.939 50.8785C222.435 50.8951 222.991 50.9064 223.61 50.923C224.234 50.9396 224.874 50.9509 225.526 50.9509C225.699 50.9509 225.832 50.923 225.933 50.8731C226.038 50.8228 226.089 50.7504 226.094 50.6504C226.094 50.5778 226.061 50.5108 225.983 50.4497C225.91 50.3886 225.793 50.3551 225.626 50.3495C225.476 50.3495 225.314 50.3439 225.131 50.3382C224.952 50.3329 224.774 50.3214 224.596 50.3047C224.417 50.2881 224.261 50.2712 224.122 50.249C223.838 50.2045 223.616 50.1265 223.454 50.0153C223.298 49.9038 223.181 49.7532 223.109 49.5696C223.036 49.3858 222.981 49.1684 222.953 48.9122C222.908 48.5054 222.88 47.9933 222.858 47.3747C222.841 46.7562 222.83 46.049 222.824 45.2581C222.819 44.4673 222.819 43.6148 222.819 42.6958V37.6827C222.819 36.8248 222.819 36.0951 222.819 35.4878C222.819 34.8808 222.819 34.374 222.824 33.9616C222.824 33.5494 222.83 33.2042 222.836 32.9311C222.836 32.6583 222.847 32.4185 222.853 32.2236C222.864 32.0285 222.875 31.8393 222.886 31.6667C222.908 31.1707 223.003 30.8089 223.159 30.5693C223.321 30.3353 223.593 30.1906 223.989 30.129C224.15 30.0957 224.301 30.0679 224.434 30.0513C224.568 30.0344 224.713 30.029 224.858 30.029C225.008 30.029 225.125 30.0068 225.203 29.962C225.287 29.9119 225.326 29.8227 225.326 29.6946C225.326 29.6112 225.27 29.5498 225.164 29.5166C225.058 29.4775 224.908 29.4609 224.724 29.4609C224.434 29.4609 224.111 29.4662 223.76 29.4718C223.404 29.4775 223.047 29.4834 222.685 29.4941C222.323 29.5053 221.994 29.511 221.688 29.5166C221.382 29.522 221.137 29.5276 220.947 29.5276C220.736 29.5276 220.463 29.5222 220.134 29.5166C219.806 29.511 219.455 29.5051 219.076 29.4941C218.697 29.4831 218.329 29.4775 217.967 29.4718C217.605 29.4665 217.288 29.4609 217.004 29.4609C216.77 29.4609 216.597 29.4775 216.48 29.5166C216.363 29.5498 216.302 29.6112 216.302 29.6946C216.302 29.8227 216.341 29.9119 216.424 29.962C216.502 30.0065 216.62 30.029 216.77 30.029C216.953 30.029 217.138 30.0344 217.316 30.0569C217.499 30.0794 217.672 30.1126 217.839 30.1627C218.051 30.2241 218.229 30.3131 218.369 30.4246C218.508 30.536 218.619 30.692 218.692 30.8925C218.769 31.0876 218.82 31.3438 218.842 31.667C218.847 31.8396 218.853 32.0288 218.859 32.2239C218.864 32.4187 218.864 32.6583 218.87 32.9314C218.87 33.2042 218.876 33.5496 218.876 33.9618C218.876 34.3743 218.876 34.881 218.876 35.4881C218.876 36.0953 218.876 36.8251 218.876 37.6829V42.6961L218.875 42.6958ZM242.872 51.3186C243.518 51.3186 244.17 51.2963 244.838 51.2575C245.501 51.2186 246.131 51.1516 246.71 51.057C247.295 50.9624 247.791 50.8399 248.186 50.6837C248.432 50.5947 248.604 50.4888 248.71 50.3774C248.816 50.2661 248.899 50.0879 248.955 49.8481C249.016 49.6476 249.078 49.408 249.139 49.113C249.2 48.8233 249.256 48.5169 249.312 48.1937C249.362 47.8762 249.412 47.5645 249.451 47.2638C249.495 46.9684 249.529 46.7122 249.551 46.5005C249.579 46.2886 249.59 46.1438 249.59 46.0715C249.59 45.949 249.557 45.8375 249.501 45.7317C249.44 45.6314 249.356 45.5757 249.256 45.5703C249.145 45.5647 249.061 45.6092 249.011 45.6928C248.96 45.7764 248.922 45.9268 248.888 46.1385C248.855 46.3221 248.788 46.5228 248.693 46.7457C248.604 46.9684 248.487 47.1914 248.348 47.4139C248.209 47.6425 248.053 47.8483 247.886 48.0434C247.501 48.4722 247.072 48.7954 246.593 49.0125C246.114 49.2298 245.557 49.3745 244.922 49.4469C244.287 49.5192 243.535 49.5527 242.672 49.5474C241.875 49.5474 241.051 49.4193 240.204 49.1574C239.358 48.9012 238.539 48.511 237.742 47.9876C236.951 47.464 236.238 46.8012 235.603 46.0101C234.968 45.2134 234.461 44.2832 234.088 43.2138C233.714 42.1443 233.525 40.9359 233.514 39.5876C233.508 38.6574 233.581 37.7492 233.731 36.8524C233.887 35.9614 234.16 35.1201 234.555 34.329C234.946 33.5384 235.503 32.8306 236.221 32.2011C236.661 31.8224 237.151 31.5164 237.681 31.2822C238.215 31.0428 238.817 30.87 239.485 30.7588C240.154 30.6473 240.917 30.5972 241.769 30.5972C243.128 30.6028 244.287 30.7641 245.251 31.0707C246.215 31.3714 246.944 31.7723 247.451 32.2684C247.819 32.6414 248.097 33.059 248.281 33.5269C248.471 33.9894 248.571 34.4517 248.587 34.9084C248.587 35.0922 248.61 35.2426 248.648 35.3487C248.693 35.4543 248.777 35.5101 248.888 35.5101C249.022 35.5044 249.116 35.4377 249.178 35.3096C249.239 35.1815 249.272 35.0143 249.289 34.8084C249.3 34.6634 249.306 34.463 249.311 34.2178C249.317 33.9726 249.323 33.7054 249.328 33.4103C249.333 33.115 249.339 32.8196 249.35 32.5302C249.361 32.2349 249.372 31.973 249.389 31.7335C249.411 31.399 249.433 31.1374 249.456 30.9311C249.473 30.7309 249.489 30.5693 249.506 30.4522C249.517 30.3294 249.523 30.2348 249.523 30.1625C249.528 30.0791 249.495 30.0065 249.434 29.9454C249.367 29.884 249.256 29.8449 249.088 29.8283C248.654 29.7725 248.197 29.7058 247.707 29.6166C247.217 29.533 246.699 29.444 246.148 29.3604C245.707 29.3046 245.278 29.2545 244.855 29.21C244.432 29.1599 243.981 29.1267 243.501 29.0988C243.022 29.0709 242.477 29.0597 241.87 29.0597C240.416 29.0597 239.118 29.1824 237.981 29.4217C236.845 29.6613 235.831 30.0068 234.94 30.4578C234.048 30.9037 233.252 31.4384 232.545 32.0676C231.848 32.6972 231.275 33.3658 230.823 34.0674C230.372 34.7693 230.021 35.4714 229.771 36.1733C229.52 36.8749 229.347 37.5436 229.247 38.1731C229.147 38.8024 229.097 39.3651 229.102 39.8553C229.097 40.7743 229.197 41.727 229.409 42.7073C229.62 43.6876 229.999 44.6457 230.534 45.5926C231.069 46.5396 231.821 47.4254 232.779 48.2441C233.67 48.9848 234.645 49.5865 235.692 50.0375C236.745 50.4888 237.87 50.8177 239.068 51.0181C240.265 51.2242 241.535 51.3244 242.872 51.3188L242.872 51.3186Z" fill="white"/>
<path d="M106.533 69.571C106.533 68.6242 106.533 67.8147 106.533 67.1476C106.533 66.4805 106.533 65.9205 106.538 65.4725C106.538 65.0194 106.543 64.6428 106.549 64.3423C106.553 64.047 106.559 63.7875 106.564 63.5735C106.574 63.3648 106.584 63.161 106.594 62.9726C106.615 62.4431 106.711 62.036 106.874 61.7555C107.037 61.4806 107.322 61.3024 107.724 61.2313C107.902 61.2009 108.05 61.1753 108.162 61.16C108.279 61.1446 108.386 61.1398 108.488 61.1398C108.554 61.1398 108.61 61.1247 108.656 61.094C108.707 61.0636 108.733 61.0176 108.733 60.9565C108.733 60.8649 108.692 60.8041 108.615 60.7631C108.534 60.7273 108.412 60.712 108.244 60.712C108.01 60.712 107.73 60.7171 107.414 60.7273C107.093 60.7325 106.778 60.7478 106.462 60.7578C106.146 60.768 105.876 60.7782 105.652 60.7885C105.433 60.7987 105.296 60.8038 105.25 60.8038C105.209 60.8038 105.072 60.7987 104.843 60.7885C104.614 60.7782 104.323 60.768 103.982 60.7578C103.641 60.7478 103.28 60.7325 102.898 60.7273C102.516 60.7171 102.149 60.712 101.798 60.712C101.63 60.712 101.508 60.7273 101.426 60.7631C101.35 60.8041 101.309 60.8649 101.309 60.9565C101.314 61.0176 101.34 61.0636 101.386 61.094C101.437 61.1247 101.493 61.1398 101.554 61.1398C101.65 61.1398 101.762 61.1398 101.89 61.15C102.022 61.1551 102.149 61.1654 102.276 61.1807C102.404 61.1907 102.511 61.2111 102.592 61.2316C102.923 61.2978 103.183 61.4047 103.366 61.5474C103.554 61.6847 103.682 61.8731 103.763 62.1073C103.84 62.3364 103.89 62.6266 103.905 62.9729C103.921 63.1613 103.931 63.3651 103.936 63.5737C103.946 63.7877 103.951 64.047 103.956 64.3426C103.956 64.643 103.961 65.0197 103.961 65.4728C103.966 65.9207 103.966 66.4807 103.966 67.1478C103.966 67.8149 103.966 68.6244 103.966 69.5713V70.2131C103.966 70.2895 103.946 70.3353 103.91 70.3609C103.874 70.3862 103.834 70.3964 103.783 70.3964H90.8308C90.785 70.3964 90.739 70.3862 90.7035 70.3609C90.6677 70.3353 90.6475 70.2895 90.6475 70.2131V69.5713C90.6475 68.6244 90.6475 67.8149 90.6475 67.1478C90.6475 66.4807 90.6475 65.9207 90.6526 65.4728C90.6526 65.0197 90.6574 64.643 90.6625 64.3426C90.6625 64.0473 90.673 63.7877 90.6779 63.5737C90.6881 63.3651 90.6983 63.1613 90.7086 62.9729C90.7288 62.4433 90.8257 62.0362 90.9886 61.7557C91.1514 61.4809 91.4365 61.3027 91.8387 61.2316C92.017 61.2011 92.1645 61.1756 92.2767 61.1602C92.3938 61.1449 92.5005 61.14 92.6025 61.14C92.6687 61.14 92.7247 61.125 92.7705 61.0943C92.8214 61.0638 92.8469 61.0178 92.8469 60.9567C92.8469 60.8652 92.806 60.8043 92.7296 60.7634C92.6483 60.7276 92.526 60.7123 92.3581 60.7123C92.1238 60.7123 91.8441 60.7174 91.523 60.7276C91.2074 60.7327 90.8917 60.7481 90.5759 60.758C90.2603 60.7683 89.9906 60.7785 89.7663 60.7887C89.5426 60.7989 89.4102 60.8041 89.3644 60.8041C89.3186 60.8041 89.1862 60.7989 88.952 60.7887C88.7226 60.7785 88.4378 60.7683 88.0967 60.758C87.7556 60.7481 87.394 60.7327 87.0123 60.7276C86.6303 60.7174 86.2639 60.7123 85.9125 60.7123C85.7445 60.7123 85.6223 60.7276 85.5407 60.7634C85.4643 60.8043 85.4236 60.8652 85.4236 60.9567C85.4285 61.0178 85.4541 61.0638 85.5001 61.0943C85.551 61.125 85.607 61.14 85.6678 61.14C85.7647 61.14 85.8767 61.14 86.0038 61.1503C86.1365 61.1554 86.2636 61.1656 86.3907 61.181C86.518 61.1909 86.62 61.2114 86.7065 61.2318C87.0376 61.2981 87.2971 61.4049 87.4802 61.5476C87.6686 61.6849 87.796 61.8734 87.8775 62.1076C87.954 62.3367 88.0046 62.6269 88.02 62.9731C88.0302 63.1616 88.0402 63.3653 88.0504 63.574C88.0552 63.788 88.0657 64.0473 88.0706 64.3429C88.0706 64.6433 88.0757 65.0199 88.0757 65.473C88.0806 65.921 88.0806 66.481 88.0806 67.1481C88.0806 67.8152 88.0806 68.6247 88.0806 69.5715V74.9483C88.0806 75.9311 88.0806 76.8422 88.0757 77.6875C88.0706 78.5277 88.0552 79.2813 88.035 79.9379C88.0146 80.5999 87.979 81.1447 87.9279 81.5774C87.8921 81.8727 87.8415 82.1425 87.7801 82.3818C87.7193 82.616 87.6326 82.8147 87.5155 82.9622C87.4035 83.1151 87.2455 83.2169 87.0422 83.2575C86.8998 83.288 86.7469 83.3184 86.584 83.344C86.4211 83.3642 86.2685 83.3795 86.126 83.3795C86.0342 83.3795 85.9731 83.4 85.9376 83.4355C85.8967 83.4713 85.8813 83.5171 85.8813 83.5628C85.8813 83.6544 85.9222 83.7155 85.9987 83.7513C86.0803 83.7919 86.2022 83.8073 86.3705 83.8073C86.6095 83.8073 86.8844 83.8022 87.2053 83.7919C87.5208 83.7817 87.8417 83.7717 88.1524 83.7615C88.4682 83.7513 88.7379 83.7413 88.9619 83.7311C89.1859 83.7209 89.3184 83.7157 89.3641 83.7157C89.4099 83.7157 89.5472 83.7209 89.7814 83.7311C90.0105 83.7413 90.311 83.7513 90.6725 83.7615C91.029 83.7717 91.4209 83.7817 91.8487 83.7919C92.2714 83.8022 92.6989 83.8073 93.1216 83.8073C93.2895 83.8073 93.4118 83.7871 93.4933 83.7411C93.5698 83.7001 93.6104 83.6393 93.6104 83.5628C93.6104 83.5171 93.5954 83.4711 93.5596 83.4355C93.5186 83.4 93.4578 83.3795 93.366 83.3795C93.2693 83.3795 93.142 83.3747 92.9842 83.3644C92.8211 83.3491 92.6534 83.334 92.4749 83.3187C92.3018 83.2985 92.1389 83.2777 91.9914 83.2578C91.6909 83.2169 91.4567 83.1154 91.2939 82.9625C91.131 82.8147 91.019 82.6163 90.9476 82.382C90.8763 82.143 90.8254 81.873 90.8001 81.5776C90.749 81.1447 90.7134 80.6001 90.693 79.9381C90.6728 79.2815 90.6572 78.528 90.6523 77.6878C90.6472 76.8424 90.6472 75.9314 90.6472 74.9485V71.7408C90.6472 71.6644 90.6674 71.6135 90.7032 71.5933C90.739 71.5677 90.7848 71.5524 90.8305 71.5575H103.783C103.834 71.5575 103.874 71.5726 103.91 71.6033C103.946 71.6337 103.966 71.6797 103.966 71.7406V74.9483C103.966 75.9311 103.966 76.8422 103.961 77.6875C103.956 78.5277 103.946 79.2813 103.92 79.9379C103.9 80.5999 103.864 81.1447 103.813 81.5774C103.778 81.8727 103.727 82.1425 103.666 82.3818C103.604 82.616 103.518 82.8147 103.401 82.9622C103.289 83.1151 103.131 83.2169 102.928 83.2575C102.785 83.288 102.632 83.3184 102.469 83.344C102.307 83.3642 102.154 83.3795 102.011 83.3795C101.92 83.3795 101.859 83.4 101.823 83.4355C101.782 83.4713 101.767 83.5171 101.767 83.5628C101.767 83.6544 101.807 83.7155 101.884 83.7513C101.965 83.7919 102.088 83.8073 102.256 83.8073C102.495 83.8073 102.77 83.8022 103.091 83.7919C103.407 83.7817 103.727 83.7717 104.043 83.7615C104.353 83.7513 104.623 83.7413 104.847 83.7311C105.071 83.7209 105.204 83.7157 105.25 83.7157C105.295 83.7157 105.433 83.7209 105.667 83.7311C105.901 83.7413 106.196 83.7513 106.558 83.7615C106.919 83.7717 107.312 83.7817 107.734 83.7919C108.157 83.8022 108.584 83.8073 109.007 83.8073C109.175 83.8073 109.297 83.7871 109.379 83.7411C109.455 83.7001 109.496 83.6393 109.496 83.5628C109.496 83.5171 109.481 83.4711 109.445 83.4355C109.404 83.4 109.343 83.3795 109.251 83.3795C109.155 83.3795 109.027 83.3747 108.869 83.3644C108.707 83.3491 108.539 83.334 108.36 83.3187C108.187 83.2985 108.025 83.2777 107.877 83.2578C107.576 83.2169 107.342 83.1154 107.179 82.9625C107.021 82.8147 106.904 82.6163 106.833 82.382C106.762 82.143 106.711 81.873 106.685 81.5776C106.634 81.1447 106.599 80.6001 106.578 79.9381C106.558 79.2815 106.543 78.528 106.538 77.6878C106.533 76.8424 106.533 75.9314 106.533 74.9485V69.5718L106.533 69.571ZM113.162 73.9396C113.162 74.7235 113.249 75.5179 113.432 76.317C113.61 77.1217 113.88 77.9005 114.252 78.6643C114.618 79.4229 115.087 80.1358 115.657 80.7924C116.222 81.4544 116.899 82.0346 117.673 82.5339C118.452 83.0379 119.338 83.4299 120.336 83.7101C121.334 83.9952 122.444 84.1376 123.671 84.143C124.969 84.1379 126.171 83.9546 127.281 83.5979C128.386 83.2366 129.384 82.7326 130.264 82.0806C131.15 81.4342 131.899 80.6653 132.525 79.7793C133.146 78.8985 133.625 77.9261 133.956 76.8721C134.287 75.8181 134.454 74.7079 134.454 73.5422C134.444 72.0249 134.174 70.6654 133.645 69.4688C133.11 68.2672 132.367 67.244 131.41 66.3986C130.447 65.5587 129.327 64.912 128.039 64.4689C126.751 64.0261 125.346 63.8018 123.824 63.797C122.587 63.8018 121.466 63.9547 120.458 64.2549C119.45 64.5605 118.549 64.9729 117.76 65.4973C116.971 66.0215 116.288 66.6224 115.708 67.2994C115.133 67.9765 114.654 68.6894 114.277 69.448C113.901 70.2064 113.621 70.9653 113.437 71.7342C113.254 72.498 113.163 73.2359 113.163 73.9388L113.162 73.9396ZM115.942 73.2369C115.947 71.8216 116.14 70.5895 116.517 69.5304C116.899 68.4713 117.434 67.5907 118.121 66.888C118.814 66.1803 119.628 65.6561 120.57 65.2994C121.507 64.9481 122.546 64.7752 123.671 64.7752C124.526 64.7752 125.346 64.9023 126.135 65.1621C126.929 65.4216 127.662 65.8085 128.334 66.323C129.006 66.8372 129.597 67.4736 130.101 68.2373C130.605 69.0011 130.997 69.8868 131.277 70.895C131.557 71.903 131.7 73.0283 131.705 74.2755C131.7 75.5231 131.578 76.6126 131.333 77.5341C131.094 78.4607 130.768 79.2501 130.356 79.8964C129.948 80.5431 129.485 81.0778 128.976 81.495C128.467 81.9075 127.937 82.2335 127.393 82.4623C126.848 82.6917 126.323 82.8546 125.809 82.9459C125.3 83.0323 124.842 83.0783 124.435 83.0732C123.213 83.0683 122.087 82.839 121.059 82.3859C120.03 81.9325 119.129 81.281 118.366 80.4255C117.602 79.5651 117.011 78.5367 116.584 77.3249C116.161 76.1132 115.947 74.7537 115.942 73.2364V73.2369ZM146.002 65.3554L149.362 65.4165C149.998 65.4316 150.528 65.4774 150.94 65.5541C151.353 65.6305 151.673 65.732 151.907 65.8594C152.147 65.9867 152.315 66.1342 152.416 66.3022C152.518 66.4702 152.58 66.6538 152.6 66.852L152.63 67.1271C152.645 67.3053 152.671 67.4273 152.701 67.4938C152.737 67.56 152.783 67.5904 152.844 67.5853C152.91 67.5853 152.966 67.5549 153.012 67.4989C153.063 67.438 153.088 67.3565 153.088 67.2496C153.088 67.168 153.093 67.0051 153.104 66.7709C153.114 66.5316 153.124 66.2618 153.134 65.9509C153.144 65.6405 153.154 65.3401 153.165 65.0396C153.175 64.7446 153.18 64.4899 153.18 64.2861C153.185 64.2048 153.18 64.1386 153.165 64.0777C153.154 64.0166 153.119 63.9859 153.058 63.9808C152.997 63.9808 152.905 63.9961 152.778 64.0166C152.655 64.0419 152.493 64.0726 152.294 64.103C152.085 64.1337 151.821 64.1641 151.505 64.1846C151.189 64.2102 150.813 64.2252 150.37 64.2252H140.227C140.121 64.2252 139.947 64.2204 139.713 64.215C139.484 64.2048 139.224 64.1948 138.94 64.1744C138.654 64.159 138.379 64.1337 138.12 64.103C137.763 64.0521 137.493 63.9859 137.32 63.9146C137.142 63.8435 137.015 63.8026 136.928 63.7975C136.898 63.8023 136.867 63.8333 136.832 63.8893C136.796 63.9501 136.765 64.0163 136.73 64.0928C136.699 64.1692 136.674 64.2301 136.653 64.2861C136.648 64.3319 136.623 64.4492 136.582 64.6323C136.541 64.8156 136.491 65.0345 136.434 65.2892C136.378 65.5387 136.323 65.7934 136.271 66.0478C136.215 66.3025 136.17 66.5265 136.129 66.7198C136.093 66.9082 136.073 67.0356 136.073 67.0964C136.078 67.1731 136.099 67.2238 136.144 67.2596C136.185 67.2954 136.221 67.3104 136.256 67.3104C136.317 67.3104 136.373 67.3002 136.419 67.2698C136.465 67.234 136.501 67.168 136.531 67.066C136.572 66.9796 136.613 66.8775 136.664 66.7553C136.715 66.6331 136.811 66.4654 136.959 66.2411C137.086 66.0376 137.254 65.8798 137.468 65.7625C137.677 65.6454 137.962 65.5589 138.313 65.5081C138.67 65.4569 139.123 65.4265 139.678 65.4163L143.558 65.3551V76.261C143.558 77.101 143.558 77.8749 143.553 78.5929C143.548 79.3107 143.537 79.9473 143.522 80.507C143.507 81.0619 143.476 81.5204 143.436 81.8819C143.395 82.2685 143.324 82.5794 143.212 82.8239C143.1 83.0683 142.911 83.2207 142.641 83.2872C142.519 83.3176 142.387 83.3481 142.244 83.3736C142.107 83.3938 141.974 83.4092 141.847 83.4092C141.771 83.4092 141.715 83.4296 141.684 83.4652C141.648 83.501 141.633 83.547 141.633 83.5925C141.633 83.669 141.663 83.725 141.735 83.7554C141.801 83.7912 141.908 83.8065 142.061 83.8065C142.269 83.8065 142.519 83.8014 142.814 83.7912C143.11 83.7809 143.405 83.771 143.705 83.7607C144 83.7505 144.255 83.7405 144.469 83.7303C144.678 83.7201 144.805 83.715 144.841 83.715C144.886 83.715 145.009 83.7201 145.217 83.7303C145.431 83.7405 145.696 83.7505 146.012 83.7607C146.332 83.771 146.679 83.7809 147.056 83.7912C147.427 83.8014 147.799 83.8065 148.17 83.8065C148.323 83.8065 148.43 83.7863 148.501 83.7454C148.567 83.7048 148.598 83.6536 148.598 83.5928C148.603 83.5419 148.588 83.4961 148.562 83.4503C148.532 83.4046 148.476 83.3841 148.384 83.379C148.298 83.379 148.186 83.3741 148.038 83.3639C147.895 83.3486 147.748 83.3335 147.59 83.3181C147.432 83.2979 147.289 83.2772 147.162 83.2573C146.892 83.2164 146.689 83.1348 146.546 83.018C146.409 82.8957 146.307 82.7431 146.251 82.5498C146.19 82.3611 146.149 82.1371 146.124 81.8827C146.083 81.5211 146.058 81.0627 146.037 80.5078C146.022 79.9478 146.012 79.3114 146.007 78.5937C146.002 77.8757 146.002 77.1017 146.002 76.2618V65.3559L146.002 65.3554ZM158.771 76.2613C158.771 77.1012 158.771 77.8752 158.766 78.5932C158.761 79.3109 158.745 79.9476 158.725 80.5073C158.705 81.0622 158.669 81.5206 158.618 81.8822C158.582 82.1366 158.541 82.3606 158.496 82.559C158.455 82.7526 158.389 82.9106 158.302 83.0274C158.216 83.1496 158.083 83.2258 157.915 83.2568C157.788 83.277 157.651 83.2974 157.503 83.3279C157.355 83.3583 157.218 83.3736 157.09 83.3787C157.014 83.3839 156.958 83.4043 156.928 83.4501C156.892 83.4958 156.876 83.5419 156.876 83.5925C156.876 83.669 156.913 83.725 156.989 83.7554C157.06 83.7912 157.167 83.8065 157.304 83.8065C157.523 83.8065 157.773 83.8014 158.048 83.7863C158.328 83.7761 158.597 83.7607 158.862 83.7454C159.163 83.7303 159.417 83.7201 159.636 83.7201C159.855 83.715 159.982 83.715 160.023 83.715C160.221 83.715 160.501 83.715 160.863 83.7201C161.224 83.7303 161.688 83.7454 162.253 83.7761C162.803 83.7912 163.47 83.8116 164.248 83.8321C165.027 83.8523 165.919 83.8679 166.926 83.8679C167.268 83.8727 167.537 83.8628 167.736 83.8423C167.934 83.8221 168.082 83.7659 168.184 83.669C168.286 83.5723 168.367 83.4143 168.423 83.1957C168.464 83.0532 168.505 82.8495 168.546 82.5999C168.586 82.3455 168.627 82.0806 168.663 81.8057C168.704 81.5308 168.729 81.2918 168.755 81.0826C168.78 80.874 168.79 80.7415 168.79 80.6906C168.79 80.594 168.78 80.5022 168.755 80.4206C168.729 80.3391 168.683 80.2984 168.607 80.2933C168.53 80.2884 168.474 80.3189 168.434 80.3748C168.393 80.436 168.362 80.538 168.332 80.6906C168.281 81.0317 168.205 81.3219 168.103 81.551C168.001 81.7804 167.868 81.9737 167.706 82.1212C167.543 82.269 167.344 82.3964 167.11 82.493C166.871 82.5848 166.586 82.6457 166.26 82.6866C165.929 82.7272 165.603 82.7474 165.277 82.7577C164.946 82.7681 164.661 82.7681 164.422 82.7681C163.76 82.773 163.225 82.7426 162.808 82.6866C162.39 82.6306 162.069 82.5288 161.845 82.381C161.616 82.2335 161.458 82.0248 161.367 81.7497C161.275 81.4748 161.224 81.1233 161.214 80.6909C161.209 80.5789 161.204 80.3904 161.204 80.1156C161.199 79.8405 161.199 79.5249 161.199 79.1634C161.204 78.8021 161.204 78.4303 161.204 78.0534C161.209 77.6768 161.209 77.3303 161.209 77.0097C161.214 76.6941 161.214 76.4446 161.214 76.2613V74.0922C161.214 74.0413 161.224 74.0004 161.249 73.9651C161.275 73.9293 161.321 73.9091 161.397 73.9091C161.494 73.9091 161.672 73.9091 161.927 73.914C162.182 73.914 162.477 73.9191 162.813 73.9242C163.154 73.9293 163.495 73.9396 163.846 73.9498C164.192 73.96 164.513 73.97 164.798 73.9802C165.088 73.9956 165.307 74.0109 165.46 74.0313C165.801 74.072 166.071 74.1329 166.259 74.2096C166.448 74.286 166.585 74.3773 166.667 74.4844C166.753 74.5862 166.809 74.7033 166.834 74.8255C166.896 74.9935 166.931 75.1462 166.942 75.2888C166.957 75.4264 166.962 75.5589 166.957 75.6811C166.957 75.7575 166.972 75.8186 167.002 75.8593C167.033 75.9051 167.079 75.9255 167.14 75.9255C167.232 75.9207 167.293 75.8647 167.334 75.7627C167.369 75.6609 167.384 75.5486 167.384 75.4366C167.384 75.3653 167.389 75.2329 167.405 75.0344C167.415 74.836 167.43 74.6171 167.445 74.3829C167.466 74.1436 167.486 73.935 167.506 73.7565C167.542 73.3338 167.588 73.0029 167.639 72.7738C167.69 72.5447 167.715 72.3918 167.72 72.3208C167.72 72.2443 167.705 72.1883 167.68 72.1579C167.649 72.1221 167.613 72.1067 167.568 72.1067C167.522 72.1067 167.466 72.1425 167.405 72.2034C167.338 72.2699 167.262 72.3461 167.17 72.4427C167.038 72.5752 166.865 72.6616 166.651 72.7074C166.442 72.748 166.178 72.7838 165.857 72.8091C165.724 72.8194 165.505 72.8293 165.19 72.8396C164.874 72.8444 164.513 72.8546 164.11 72.8546C163.708 72.8598 163.306 72.8651 162.914 72.8651C162.522 72.87 162.186 72.87 161.906 72.87C161.621 72.87 161.442 72.87 161.366 72.87C161.295 72.87 161.249 72.8444 161.234 72.7987C161.218 72.7531 161.208 72.6869 161.214 72.5951V65.5385C161.214 65.4467 161.224 65.3753 161.244 65.3296C161.264 65.2841 161.305 65.2636 161.366 65.2636C161.432 65.2636 161.595 65.2636 161.845 65.2685C162.094 65.2685 162.39 65.2736 162.731 65.2787C163.077 65.2838 163.423 65.2889 163.769 65.294C164.121 65.3043 164.427 65.3094 164.696 65.3196C164.966 65.3296 165.149 65.3398 165.246 65.3551C165.73 65.4163 166.096 65.4774 166.356 65.5487C166.616 65.6149 166.799 65.6965 166.916 65.7932C167.033 65.8898 167.114 66.0072 167.171 66.1496C167.232 66.3074 167.272 66.4753 167.293 66.6538C167.313 66.8269 167.323 66.9642 167.323 67.066C167.323 67.1731 167.339 67.2544 167.374 67.3156C167.405 67.3713 167.461 67.402 167.537 67.402C167.598 67.3969 167.649 67.3662 167.695 67.3102C167.736 67.2542 167.766 67.1931 167.782 67.1271C167.797 67.0455 167.812 66.9233 167.827 66.7656C167.843 66.6027 167.858 66.4347 167.868 66.2462C167.883 66.0632 167.894 65.8949 167.904 65.7423C167.919 65.5894 167.929 65.4825 167.934 65.4163C167.97 65.0547 168.016 64.785 168.067 64.5965C168.118 64.4132 168.143 64.2807 168.148 64.1943C168.148 64.1281 168.138 64.0721 168.123 64.0263C168.102 63.9754 168.072 63.9499 168.026 63.9499C167.965 63.9547 167.904 63.9701 167.843 64.0007C167.782 64.0314 167.72 64.0519 167.66 64.0721C167.548 64.0872 167.385 64.1127 167.166 64.1485C166.947 64.1792 166.702 64.2045 166.438 64.225C166.331 64.2298 166.102 64.2352 165.765 64.2352C165.425 64.2352 165.017 64.2403 164.544 64.2403C164.07 64.2403 163.581 64.2352 163.072 64.2352C162.558 64.2352 162.08 64.2352 161.631 64.2301C161.183 64.2301 160.812 64.2301 160.521 64.2252C160.226 64.2252 160.063 64.2252 160.023 64.2252C159.977 64.2252 159.855 64.2204 159.646 64.215C159.432 64.2102 159.177 64.2048 158.867 64.1948C158.556 64.1846 158.231 64.1797 157.889 64.1746C157.543 64.1695 157.217 64.1644 156.907 64.1644C156.754 64.1644 156.647 64.1797 156.581 64.2153C156.51 64.2457 156.479 64.3017 156.479 64.3781C156.484 64.4293 156.504 64.4748 156.55 64.5206C156.596 64.5663 156.642 64.587 156.693 64.5919C156.779 64.5919 156.876 64.5919 156.993 64.6021C157.105 64.6072 157.222 64.6124 157.329 64.6223C157.441 64.6326 157.538 64.6428 157.609 64.653C157.899 64.6937 158.123 64.7701 158.276 64.8821C158.429 64.9941 158.536 65.1521 158.592 65.3505C158.653 65.549 158.693 65.7934 158.709 66.0887C158.719 66.2465 158.729 66.4196 158.739 66.5981C158.744 66.7812 158.755 66.9949 158.755 67.2496C158.76 67.5043 158.765 67.8249 158.765 68.2066C158.77 68.5887 158.77 69.0619 158.77 69.627C158.77 70.1921 158.77 70.8746 158.77 71.679V76.2613H158.771ZM178.047 71.679C178.047 70.8743 178.047 70.1921 178.047 69.627C178.047 69.0619 178.047 68.5884 178.047 68.2066C178.052 67.8249 178.052 67.5043 178.052 67.2496C178.057 66.9947 178.057 66.7812 178.062 66.5981C178.067 66.4196 178.072 66.2465 178.077 66.0887C178.092 65.7834 178.133 65.5339 178.189 65.3352C178.245 65.1368 178.347 64.9788 178.484 64.8668C178.622 64.7548 178.825 64.6735 179.085 64.6223C179.243 64.6072 179.406 64.5919 179.574 64.5817C179.742 64.5663 179.875 64.5615 179.971 64.5615C180.022 64.5566 180.068 64.5413 180.114 64.5055C180.159 64.4648 180.18 64.4239 180.185 64.3781C180.185 64.3017 180.149 64.2457 180.073 64.2153C180.002 64.1797 179.895 64.1644 179.757 64.1644C179.543 64.1644 179.279 64.1692 178.963 64.1746C178.647 64.1797 178.331 64.1848 178.011 64.1948C177.695 64.205 177.42 64.2102 177.191 64.215C176.967 64.2201 176.835 64.2252 176.794 64.2252C176.753 64.2252 176.626 64.2204 176.422 64.215C176.224 64.2102 175.969 64.2048 175.669 64.1948C175.368 64.1846 175.048 64.1797 174.711 64.1746C174.376 64.1695 174.05 64.1644 173.739 64.1644C173.586 64.1644 173.479 64.1797 173.413 64.2153C173.342 64.2457 173.311 64.3017 173.311 64.3781C173.317 64.4239 173.337 64.4748 173.383 64.5206C173.428 64.5615 173.474 64.587 173.525 64.5919C173.611 64.5919 173.708 64.5919 173.825 64.6021C173.937 64.6072 174.055 64.6124 174.161 64.6223C174.273 64.6326 174.37 64.6428 174.441 64.653C174.732 64.6937 174.955 64.7701 175.108 64.8821C175.261 64.9941 175.368 65.1521 175.424 65.3505C175.485 65.549 175.526 65.7934 175.541 66.0887C175.552 66.2465 175.562 66.4196 175.572 66.5981C175.577 66.7812 175.587 66.9949 175.587 67.2496C175.592 67.5043 175.597 67.8249 175.597 68.2066C175.602 68.5887 175.602 69.0619 175.602 69.627C175.602 70.1921 175.602 70.8746 175.602 71.679V76.2613C175.602 77.1012 175.602 77.8752 175.597 78.5932C175.592 79.3109 175.577 79.9476 175.556 80.5073C175.536 81.0622 175.501 81.5206 175.45 81.8822C175.414 82.1366 175.373 82.3606 175.327 82.5493C175.287 82.7426 175.22 82.8952 175.134 83.0174C175.047 83.1346 174.915 83.2159 174.747 83.2568C174.62 83.2872 174.482 83.3176 174.334 83.3432C174.187 83.3634 174.049 83.3787 173.922 83.3787C173.846 83.3839 173.79 83.4043 173.759 83.4501C173.724 83.4958 173.708 83.5419 173.708 83.5925C173.708 83.669 173.744 83.725 173.82 83.7554C173.891 83.7912 173.998 83.8065 174.136 83.8065C174.355 83.8065 174.599 83.8014 174.869 83.7863C175.139 83.7761 175.414 83.7607 175.694 83.7454C175.958 83.7303 176.193 83.7201 176.391 83.7201C176.595 83.715 176.727 83.715 176.793 83.715C177.185 83.715 177.623 83.7201 178.097 83.7354C178.575 83.7454 179.12 83.7607 179.726 83.7761C180.347 83.8065 181.045 83.827 181.809 83.8423C182.578 83.8574 183.443 83.8679 184.4 83.8679C184.757 83.8679 185.037 83.8628 185.246 83.8423C185.459 83.827 185.617 83.7912 185.724 83.7454C185.836 83.6945 185.918 83.6232 185.969 83.5316C186.02 83.4399 186.07 83.3176 186.111 83.165C186.167 82.9666 186.218 82.7375 186.264 82.4777C186.309 82.213 186.356 81.9479 186.391 81.6832C186.427 81.4186 186.457 81.1844 186.477 80.9806C186.498 80.7824 186.508 80.6449 186.508 80.5684C186.508 80.4308 186.493 80.3291 186.462 80.2677C186.432 80.2017 186.386 80.1711 186.325 80.1711C186.248 80.1762 186.187 80.2069 186.142 80.2728C186.096 80.3339 186.065 80.4153 186.05 80.507C186.004 80.7717 185.928 81.0315 185.821 81.2861C185.714 81.5408 185.576 81.7697 185.408 81.9734C185.194 82.2227 184.919 82.4063 184.594 82.5183C184.268 82.6303 183.901 82.7014 183.494 82.7324C183.081 82.7628 182.639 82.773 182.17 82.7681C181.473 82.7681 180.882 82.7477 180.404 82.707C179.925 82.6613 179.538 82.595 179.242 82.5032C178.952 82.4168 178.733 82.2997 178.596 82.1573C178.433 82.0095 178.316 81.7244 178.235 81.2918C178.158 80.8589 178.107 80.2375 178.082 79.428C178.056 78.6236 178.046 77.5901 178.046 76.3224V71.6792L178.047 71.679Z" fill="white"/>
<path d="M91.2591 91.3609H86.2585V92.1671H88.1874V98.0847H89.1059V92.1671H90.9837L91.2591 91.3609ZM96.8519 98.0847C96.5831 97.6525 96.3379 97.2547 96.1134 96.8942C95.8907 96.5336 95.69 96.2173 95.5166 95.9483C95.3415 95.6778 95.195 95.462 95.0745 95.3019C94.9536 95.1421 94.8618 95.0452 94.8007 95.013V95.0028C94.9707 94.9381 95.1323 94.8532 95.2852 94.7458C95.4402 94.6387 95.5762 94.5113 95.6969 94.3615C95.8158 94.2119 95.9114 94.0401 95.981 93.8476C96.0492 93.6553 96.0848 93.441 96.0866 93.2063C96.0881 92.9511 96.0457 92.7113 95.9608 92.4885C95.8759 92.2658 95.7429 92.0702 95.5609 91.902C95.3788 91.7335 95.1441 91.6008 94.8549 91.5057C94.5657 91.4103 94.219 91.3627 93.8107 91.3609H92.2796V98.0847H93.188V95.2986H93.8615C93.9518 95.3206 94.0812 95.4413 94.2461 95.6643C94.411 95.887 94.622 96.202 94.8754 96.6098C95.1288 97.0164 95.4348 97.5081 95.7902 98.0847H96.8519ZM95.1372 93.3086C95.1354 93.5364 95.0776 93.7422 94.9672 93.9276C94.8567 94.115 94.7038 94.2631 94.5113 94.3733C94.3192 94.4837 94.098 94.54 93.8513 94.5436H93.188V92.1674H93.8209C94.1423 92.1692 94.3993 92.2234 94.5933 92.3272C94.7871 92.431 94.9268 92.5686 95.0116 92.7407C95.0965 92.9143 95.139 93.103 95.1372 93.3088V93.3086ZM103.087 98.0847L100.465 91.339H99.8829L97.3011 98.0847H98.1991L98.8317 96.3293H101.434L102.118 98.0847H103.087H103.087ZM101.128 95.5436H99.1483L99.8933 93.5024C99.9545 93.3408 100.006 93.1927 100.05 93.0585C100.093 92.9243 100.128 92.7964 100.159 92.6757H100.169C100.195 92.788 100.229 92.914 100.27 93.0516C100.312 93.1912 100.363 93.3444 100.424 93.5126L101.129 95.5436H101.128ZM110.681 98.0847V91.3609H109.772L107.854 94.382C107.763 94.5216 107.694 94.644 107.643 94.7443C107.59 94.846 107.546 94.9399 107.507 95.0232H107.486C107.446 94.9348 107.396 94.8412 107.337 94.7427C107.277 94.6441 107.206 94.5267 107.119 94.3922L105.078 91.3612H104.19V98.0849H105.098V93.5044C105.098 93.4277 105.098 93.3548 105.097 93.2868C105.095 93.2203 105.092 93.1472 105.086 93.0708C105.08 92.9941 105.071 92.9043 105.058 92.8002H105.078C105.144 92.9498 105.207 93.0774 105.268 93.1812C105.329 93.285 105.389 93.3786 105.445 93.4635L107.221 96.1255H107.752L109.415 93.4737C109.473 93.3871 109.534 93.2868 109.599 93.1743C109.663 93.0623 109.724 92.9381 109.782 92.8002H109.793C109.786 92.9041 109.781 92.9941 109.779 93.0708C109.775 93.1488 109.774 93.2221 109.774 93.2902C109.772 93.36 109.772 93.4349 109.772 93.5147V98.0849H110.681V98.0847ZM112.079 94.7681C112.079 95.1217 112.121 95.4569 112.204 95.7732C112.286 96.088 112.407 96.3787 112.562 96.6441C112.718 96.9092 112.908 97.1458 113.13 97.3501C113.427 97.6221 113.769 97.8279 114.157 97.9706C114.545 98.1136 114.97 98.1852 115.436 98.1867C115.918 98.1849 116.358 98.1069 116.759 97.9502C117.161 97.7952 117.511 97.571 117.814 97.2785C118.129 96.9688 118.37 96.5996 118.542 96.1693C118.714 95.7389 118.802 95.2662 118.804 94.7473C118.802 94.2712 118.729 93.8304 118.583 93.4275C118.438 93.0227 118.229 92.667 117.957 92.3594C117.759 92.1365 117.53 91.9478 117.271 91.791C117.013 91.6345 116.729 91.5156 116.421 91.432C116.113 91.3505 115.785 91.308 115.436 91.308C114.95 91.3095 114.502 91.3944 114.094 91.5614C113.686 91.7281 113.33 91.9626 113.028 92.2674C112.725 92.5803 112.492 92.9496 112.327 93.3712C112.164 93.7949 112.08 94.261 112.079 94.7678L112.079 94.7681ZM117.824 94.7576C117.823 95.2986 117.722 95.7648 117.527 96.1575C117.333 96.5502 117.056 96.8532 116.7 97.0657C116.343 97.2802 115.923 97.3874 115.436 97.3907C114.95 97.3874 114.53 97.2802 114.172 97.0657C113.817 96.8532 113.542 96.5505 113.346 96.1575C113.15 95.7648 113.051 95.2986 113.048 94.7576C113.052 94.2168 113.15 93.7507 113.346 93.3579C113.542 92.9649 113.817 92.6622 114.172 92.4494C114.53 92.2352 114.95 92.1265 115.436 92.1244C115.819 92.1265 116.159 92.1909 116.455 92.3201C116.751 92.4494 117.001 92.6315 117.205 92.8662C117.408 93.103 117.562 93.3802 117.666 93.6998C117.771 94.0212 117.824 94.3733 117.824 94.7576H117.824ZM124.774 98.0847C124.506 97.6525 124.26 97.2547 124.036 96.8942C123.813 96.5336 123.613 96.2173 123.439 95.9483C123.264 95.6778 123.117 95.462 122.997 95.3019C122.876 95.1421 122.784 95.0452 122.723 95.013V95.0028C122.893 94.9381 123.055 94.8532 123.208 94.7458C123.363 94.6387 123.499 94.5113 123.619 94.3615C123.738 94.2119 123.834 94.0401 123.903 93.8476C123.971 93.6553 124.007 93.441 124.009 93.2063C124.011 92.9511 123.968 92.7113 123.883 92.4885C123.798 92.2658 123.665 92.0702 123.483 91.902C123.301 91.7335 123.067 91.6008 122.777 91.5057C122.488 91.4103 122.141 91.3627 121.733 91.3609H120.202V98.0847H121.111V95.2986H121.784C121.874 95.3206 122.004 95.4413 122.169 95.6643C122.334 95.887 122.544 96.202 122.798 96.6098C123.051 97.0164 123.357 97.5081 123.713 98.0847H124.774ZM123.06 93.3086C123.058 93.5364 123 93.7422 122.89 93.9276C122.779 94.115 122.626 94.2631 122.434 94.3733C122.241 94.4837 122.021 94.54 121.774 94.5436H121.111V92.1674H121.743C122.065 92.1692 122.322 92.2234 122.516 92.3272C122.71 92.431 122.849 92.5686 122.934 92.7407C123.019 92.9143 123.061 93.103 123.06 93.3088V93.3086ZM129.336 98.0847V97.2787H126.785V95.0434H128.999V94.2475H126.785V92.1671H129.02L129.316 91.3609H125.876V98.0847H129.336H129.336ZM131.541 96.9008L130.643 97.0844C130.678 97.3345 130.695 97.5659 130.694 97.7819C130.692 97.9977 130.666 98.2087 130.615 98.4178C130.564 98.6272 130.481 98.8448 130.367 99.0745L130.867 99.3501C131.187 98.9944 131.401 98.6101 131.51 98.1933C131.619 97.7783 131.629 97.3465 131.541 96.9008H131.541ZM140.287 97.6456L140.021 96.9415C139.785 97.0708 139.533 97.1746 139.263 97.2514C138.992 97.3293 138.712 97.3687 138.419 97.3703C138.04 97.3685 137.703 97.3022 137.404 97.1729C137.106 97.0437 136.853 96.8599 136.643 96.6236C136.434 96.3886 136.276 96.1097 136.166 95.7901C136.056 95.4705 136 95.1199 136 94.7371C136.002 94.3682 136.058 94.0227 136.17 93.7046C136.283 93.385 136.446 93.1043 136.66 92.8647C136.873 92.623 137.131 92.4359 137.434 92.3001C137.737 92.1656 138.079 92.0958 138.46 92.094C138.699 92.094 138.919 92.1142 139.116 92.1536C139.312 92.1927 139.497 92.2487 139.671 92.3236C139.844 92.3985 140.016 92.4888 140.184 92.5942L140.194 91.6962C140.079 91.6266 139.936 91.5634 139.766 91.5041C139.596 91.4461 139.402 91.3985 139.184 91.3627C138.967 91.3269 138.728 91.3101 138.47 91.3085C138.056 91.3101 137.674 91.3681 137.32 91.4834C136.966 91.5993 136.648 91.7642 136.366 91.9749C136.082 92.1876 135.842 92.4377 135.641 92.7286C135.441 93.0176 135.288 93.3375 135.182 93.6862C135.075 94.0368 135.022 94.4075 135.021 94.7987C135.022 95.2853 135.097 95.7341 135.245 96.146C135.395 96.5577 135.611 96.9149 135.893 97.2194C136.175 97.5255 136.519 97.7617 136.924 97.9302C137.327 98.0985 137.785 98.1836 138.296 98.1869C138.623 98.1887 138.955 98.1442 139.288 98.0576C139.621 97.9709 139.955 97.8333 140.287 97.6459L140.287 97.6456ZM141.205 94.7681C141.205 95.1217 141.248 95.4569 141.331 95.7732C141.413 96.088 141.533 96.3787 141.688 96.6441C141.845 96.9092 142.035 97.1458 142.256 97.3501C142.554 97.6221 142.896 97.8279 143.284 97.9706C143.671 98.1136 144.097 98.1852 144.563 98.1867C145.044 98.1849 145.485 98.1069 145.886 97.9502C146.287 97.7952 146.638 97.571 146.941 97.2785C147.255 96.9688 147.497 96.5996 147.669 96.1693C147.841 95.7389 147.929 95.2662 147.931 94.7473C147.929 94.2712 147.856 93.8304 147.71 93.4275C147.565 93.0227 147.356 92.667 147.083 92.3594C146.886 92.1365 146.657 91.9478 146.398 91.791C146.139 91.6345 145.856 91.5156 145.548 91.432C145.24 91.3505 144.912 91.308 144.563 91.308C144.076 91.3095 143.629 91.3944 143.221 91.5614C142.812 91.7281 142.457 91.9626 142.154 92.2674C141.851 92.5803 141.618 92.9496 141.454 93.3712C141.29 93.7949 141.207 94.261 141.206 94.7678L141.205 94.7681ZM146.951 94.7576C146.949 95.2986 146.849 95.7648 146.653 96.1575C146.459 96.5502 146.182 96.8532 145.827 97.0657C145.469 97.2802 145.049 97.3874 144.563 97.3907C144.076 97.3874 143.656 97.2802 143.299 97.0657C142.943 96.8532 142.668 96.5505 142.472 96.1575C142.277 95.7648 142.178 95.2986 142.175 94.7576C142.178 94.2168 142.277 93.7507 142.472 93.3579C142.668 92.9649 142.943 92.6622 143.299 92.4494C143.656 92.2352 144.076 92.1265 144.563 92.1244C144.946 92.1265 145.286 92.1909 145.582 92.3201C145.878 92.4494 146.128 92.6315 146.332 92.8662C146.534 93.103 146.689 93.3802 146.793 93.6998C146.898 94.0212 146.951 94.3733 146.951 94.7576H146.951ZM149.992 97.5848C149.99 97.4638 149.965 97.3567 149.914 97.2616C149.861 97.1662 149.79 97.0913 149.699 97.0371C149.609 96.9811 149.507 96.9537 149.39 96.9522C149.276 96.954 149.174 96.9811 149.084 97.0371C148.994 97.0913 148.922 97.1662 148.869 97.2616C148.817 97.3567 148.789 97.4638 148.788 97.5848C148.789 97.7021 148.816 97.8075 148.869 97.9011C148.922 97.9931 148.994 98.0675 149.084 98.1222C149.174 98.1785 149.276 98.2059 149.39 98.2071C149.507 98.2056 149.609 98.1785 149.699 98.1222C149.79 98.0678 149.861 97.9931 149.914 97.9011C149.965 97.8077 149.991 97.7021 149.992 97.5848ZM161.361 91.3609H160.412L159.024 95.6763C158.964 95.8532 158.912 96.0233 158.866 96.1849C158.822 96.3465 158.779 96.5098 158.738 96.6763H158.718C158.672 96.515 158.618 96.3498 158.555 96.1813C158.494 96.0112 158.429 95.8343 158.361 95.6456L156.881 91.3607H155.942L156.401 92.667L155.299 95.7169C155.238 95.8903 155.177 96.0621 155.119 96.2288C155.061 96.3955 155.008 96.5589 154.962 96.7172H154.942C154.896 96.5505 154.849 96.3856 154.797 96.2204C154.746 96.0552 154.692 95.8852 154.636 95.7067L153.197 91.3607H152.197L154.555 98.1151H155.259L156.483 94.8087C156.596 94.5142 156.708 94.1774 156.82 93.8H156.84C156.897 93.989 156.954 94.169 157.012 94.3408C157.07 94.5111 157.126 94.6706 157.177 94.8189L158.361 98.1153H159.065L161.362 91.3609H161.361ZM166.75 98.0847L164.127 91.339H163.545L160.963 98.0847H161.861L162.494 96.3293H165.096L165.78 98.0847H166.75ZM164.79 95.5436H162.811L163.555 93.5024C163.617 93.3408 163.668 93.1927 163.712 93.0585C163.755 92.9243 163.79 92.7964 163.821 92.6757H163.831C163.857 92.788 163.891 92.914 163.932 93.0516C163.974 93.1912 164.025 93.3444 164.087 93.5126L164.791 95.5436H164.79ZM171.587 91.3609H166.586V92.1671H168.515V98.0847H169.434V92.1671H171.312L171.587 91.3609ZM176.067 98.0847V97.2787H173.516V95.0434H175.73V94.2475H173.516V92.1671H175.751L176.047 91.3609H172.607V98.0847H176.067H176.067ZM182.129 98.0847C181.861 97.6525 181.616 97.2547 181.391 96.8942C181.168 96.5336 180.967 96.2173 180.794 95.9483C180.619 95.6778 180.473 95.462 180.352 95.3019C180.231 95.1421 180.139 95.0452 180.078 95.013V95.0028C180.248 94.9381 180.41 94.8532 180.563 94.7458C180.718 94.6387 180.854 94.5113 180.975 94.3615C181.093 94.2119 181.189 94.0401 181.259 93.8476C181.327 93.6553 181.362 93.441 181.364 93.2063C181.366 92.9511 181.323 92.7113 181.238 92.4885C181.153 92.2658 181.021 92.0702 180.839 91.902C180.656 91.7335 180.422 91.6008 180.133 91.5057C179.843 91.4103 179.496 91.3627 179.088 91.3609H177.557V98.0847H178.466V95.2986H179.139C179.229 95.3206 179.359 95.4413 179.523 95.6643C179.689 95.887 179.9 96.202 180.153 96.6098C180.406 97.0164 180.712 97.5081 181.068 98.0847H182.129ZM180.415 93.3086C180.413 93.5364 180.355 93.7422 180.245 93.9276C180.134 94.115 179.981 94.2631 179.789 94.3733C179.597 94.4837 179.375 94.54 179.129 94.5436H178.466V92.1674H179.099C179.42 92.1692 179.677 92.2234 179.871 92.3272C180.065 92.431 180.204 92.5686 180.289 92.7407C180.374 92.9143 180.417 93.103 180.415 93.3088V93.3086ZM186.681 91.3609H183.232V98.0847H184.14V95.0741H186.355V94.2779H184.14V92.1671H186.375L186.681 91.3609ZM187.722 94.7681C187.722 95.1217 187.765 95.4569 187.848 95.7732C187.929 96.088 188.05 96.3787 188.205 96.6441C188.362 96.9092 188.552 97.1458 188.773 97.3501C189.071 97.6221 189.413 97.8279 189.8 97.9706C190.188 98.1136 190.614 98.1852 191.08 98.1867C191.561 98.1849 192.002 98.1069 192.403 97.9502C192.804 97.7952 193.155 97.571 193.458 97.2785C193.772 96.9688 194.014 96.5996 194.185 96.1693C194.357 95.7389 194.446 95.2662 194.448 94.7473C194.446 94.2712 194.373 93.8304 194.226 93.4275C194.082 93.0227 193.872 92.667 193.6 92.3594C193.403 92.1365 193.173 91.9478 192.915 91.791C192.656 91.6345 192.372 91.5156 192.064 91.432C191.756 91.3505 191.428 91.308 191.08 91.308C190.593 91.3095 190.146 91.3944 189.738 91.5614C189.329 91.7281 188.974 91.9626 188.671 92.2674C188.368 92.5803 188.135 92.9496 187.97 93.3712C187.807 93.7949 187.724 94.261 187.722 94.7678L187.722 94.7681ZM193.468 94.7576C193.466 95.2986 193.366 95.7648 193.17 96.1575C192.976 96.5502 192.699 96.8532 192.343 97.0657C191.986 97.2802 191.566 97.3874 191.08 97.3907C190.593 97.3874 190.173 97.2802 189.816 97.0657C189.46 96.8532 189.185 96.5505 188.989 96.1575C188.793 95.7648 188.695 95.2986 188.691 94.7576C188.695 94.2168 188.793 93.7507 188.989 93.3579C189.185 92.9649 189.46 92.6622 189.816 92.4494C190.173 92.2352 190.593 92.1265 191.08 92.1244C191.462 92.1265 191.803 92.1909 192.099 92.3201C192.394 92.4494 192.645 92.6315 192.848 92.8662C193.051 93.103 193.206 93.3802 193.309 93.6998C193.415 94.0212 193.467 94.3733 193.467 94.7576H193.468ZM200.418 98.0847C200.149 97.6525 199.904 97.2547 199.679 96.8942C199.457 96.5336 199.256 96.2173 199.083 95.9483C198.907 95.6778 198.761 95.462 198.64 95.3019C198.519 95.1421 198.428 95.0452 198.367 95.013V95.0028C198.537 94.9381 198.698 94.8532 198.851 94.7458C199.006 94.6387 199.142 94.5113 199.263 94.3615C199.382 94.2119 199.477 94.0401 199.547 93.8476C199.615 93.6553 199.651 93.441 199.652 93.2063C199.654 92.9511 199.612 92.7113 199.527 92.4885C199.442 92.2658 199.309 92.0702 199.127 91.902C198.945 91.7335 198.71 91.6008 198.421 91.5057C198.132 91.4103 197.785 91.3627 197.377 91.3609H195.845V98.0847H196.754V95.2986H197.427C197.518 95.3206 197.647 95.4413 197.812 95.6643C197.977 95.887 198.188 96.202 198.441 96.6098C198.695 97.0164 199.001 97.5081 199.356 98.0847H200.418ZM198.703 93.3086C198.701 93.5364 198.644 93.7422 198.533 93.9276C198.423 94.115 198.27 94.2631 198.077 94.3733C197.885 94.4837 197.664 94.54 197.417 94.5436H196.754V92.1674H197.387C197.708 92.1692 197.965 92.2234 198.159 92.3272C198.353 92.431 198.493 92.5686 198.578 92.7407C198.662 92.9143 198.705 93.103 198.703 93.3088V93.3086ZM206.857 94.6556C206.857 94.1828 206.784 93.7455 206.636 93.3461C206.488 92.9447 206.264 92.5977 205.961 92.3016C205.658 92.004 205.275 91.7744 204.813 91.611C204.348 91.4458 203.802 91.3627 203.173 91.3609H201.52V98.0847H203.173C203.67 98.0829 204.114 98.0251 204.508 97.911C204.903 97.7973 205.247 97.6357 205.541 97.428C205.835 97.2191 206.08 96.9721 206.275 96.6865C206.469 96.4025 206.616 96.088 206.713 95.7461C206.81 95.4022 206.857 95.0401 206.857 94.6556H206.857ZM205.908 94.6556C205.91 95.0061 205.862 95.338 205.767 95.6507C205.672 95.9652 205.52 96.2444 205.309 96.4876C205.1 96.7328 204.825 96.923 204.483 97.0644C204.141 97.2041 203.726 97.2754 203.234 97.279H202.428V92.1677H203.244C203.701 92.1694 204.097 92.2341 204.432 92.3615C204.767 92.4891 205.042 92.666 205.262 92.892C205.479 93.1183 205.643 93.3819 205.748 93.6831C205.855 93.9823 205.908 94.3073 205.908 94.6558L205.908 94.6556ZM208.643 96.9011L207.745 97.0846C207.781 97.3347 207.798 97.5661 207.796 97.7822C207.795 97.998 207.769 98.2089 207.718 98.4181C207.667 98.6275 207.584 98.8451 207.47 99.0747L207.97 99.3503C208.29 98.9947 208.504 98.6104 208.613 98.1936C208.722 97.7786 208.732 97.3467 208.644 96.9011H208.643ZM213.409 98.0849V91.3612H212.501V98.0849H213.409ZM219.757 98.0849C219.489 97.6528 219.243 97.2549 219.019 96.8944C218.796 96.5339 218.596 96.2176 218.422 95.9486C218.247 95.6781 218.1 95.4623 217.98 95.3022C217.859 95.1424 217.767 95.0455 217.706 95.0133V95.003C217.876 94.9384 218.038 94.8535 218.191 94.7461C218.346 94.6389 218.482 94.5116 218.602 94.3618C218.721 94.2122 218.817 94.0404 218.887 93.8478C218.955 93.6555 218.99 93.4413 218.992 93.2065C218.994 92.9514 218.951 92.7115 218.866 92.4888C218.781 92.2661 218.648 92.0705 218.466 91.9022C218.284 91.7337 218.05 91.601 217.76 91.5059C217.471 91.4105 217.125 91.363 216.716 91.3612H215.185V98.0849H216.094V95.2989H216.767C216.857 95.3209 216.987 95.4416 217.152 95.6645C217.317 95.8872 217.527 96.2022 217.781 96.6101C218.034 97.0166 218.34 97.5083 218.696 98.0849H219.757ZM218.043 93.3088C218.041 93.5366 217.983 93.7425 217.873 93.9278C217.762 94.1153 217.609 94.2633 217.417 94.3735C217.225 94.484 217.004 94.5402 216.757 94.5438H216.094V92.1677H216.726C217.048 92.1694 217.305 92.2237 217.499 92.3275C217.693 92.4313 217.832 92.5688 217.917 92.7409C218.002 92.9145 218.045 93.1032 218.043 93.3091V93.3088ZM224.319 98.0849V97.279H221.768V95.0437H223.982V94.2477H221.768V92.1674H224.003L224.299 91.3612H220.859V98.0849H224.319H224.319ZM229.218 98.0849V97.279H226.718V91.3612H225.809V98.0849H229.218ZM235.443 98.0849L232.821 91.3392H232.239L229.657 98.0849H230.555L231.188 96.3296H233.79L234.474 98.0849H235.443ZM233.484 95.5438H231.504L232.249 93.5026C232.31 93.341 232.361 93.193 232.406 93.0587C232.448 92.9245 232.484 92.7967 232.515 92.676H232.525C232.551 92.7882 232.585 92.9143 232.625 93.0518C232.668 93.1915 232.719 93.3446 232.78 93.5129L233.484 95.5438H233.484ZM242.271 98.0849V91.3612H241.362V95.7274C241.362 95.8957 241.366 96.0524 241.369 96.1969C241.373 96.3431 241.378 96.4774 241.383 96.6052H241.362C241.32 96.5152 241.267 96.4216 241.204 96.3263C241.142 96.2291 241.063 96.1171 240.969 95.991C240.878 95.8652 240.764 95.7118 240.628 95.5336L237.474 91.3612H236.545V98.0849H237.454V93.586C237.454 93.4177 237.45 93.2646 237.446 93.125C237.44 92.9856 237.434 92.8616 237.423 92.7491H237.443C237.49 92.8358 237.544 92.9258 237.605 93.0212C237.666 93.1163 237.74 93.2219 237.827 93.3392C237.911 93.4566 238.017 93.5929 238.138 93.7491L241.424 98.0847H242.271L242.271 98.0849ZM249.384 94.6558C249.384 94.183 249.311 93.7458 249.163 93.3464C249.015 92.945 248.79 92.598 248.487 92.3019C248.185 92.0043 247.802 91.7747 247.339 91.6113C246.875 91.4461 246.329 91.363 245.7 91.3612H244.046V98.0849H245.7C246.196 98.0831 246.64 98.0253 247.035 97.9113C247.429 97.7975 247.773 97.6359 248.067 97.4283C248.362 97.2194 248.606 96.9724 248.802 96.6868C248.996 96.4027 249.142 96.0882 249.239 95.7463C249.336 95.4024 249.384 95.0404 249.384 94.6558H249.384ZM248.435 94.6558C248.437 95.0064 248.389 95.3383 248.294 95.651C248.198 95.9655 248.047 96.2447 247.836 96.4879C247.627 96.7331 247.351 96.9233 247.009 97.0647C246.667 97.2043 246.252 97.2756 245.761 97.2792H244.955V92.1679H245.771C246.227 92.1697 246.623 92.2344 246.958 92.3617C247.294 92.4893 247.569 92.6663 247.788 92.8923C248.006 93.1186 248.169 93.3822 248.275 93.6834C248.382 93.9826 248.434 94.3076 248.434 94.6561L248.435 94.6558Z" fill="white"/>
</g>
<defs>
<clipPath id="clip0_2054_11198">
<rect width="249.59" height="99.3504" fill="white"/>
</clipPath>
</defs>
</svg>
